<?xml version="1.0" encoding="utf-8"?>
<!-- Generator: Adobe Illustrator 19.2.0, SVG Export Plug-In . SVG Version: 6.00 Build 0)  -->
<svg version="1.1" id="Layer_1" xmlns="http://www.w3.org/2000/svg" xmlns:xlink="http://www.w3.org/1999/xlink" x="0px" y="0px"
	 viewBox="0 0 500 500" style="enable-background:new 0 0 500 500;" xml:space="preserve">
<style type="text/css">
	.st0{fill:#67C9CF;}
</style>
<g>
	<path class="st0" d="M106.2,351.8c-0.3,0.8,1.2,0.3,0.3-0.3C106.5,351.6,106.4,351.7,106.2,351.8z"/>
	<path class="st0" d="M4.2,208.6c-0.2,0.2-0.4,0.2-0.6,0.3c0.6,0.4,0.2,0.7,0.7,1.1C4.8,209.5,4.8,209.1,4.2,208.6z"/>
	<path class="st0" d="M69.9,277.5c-0.5,0.3-0.3,0.7,0.1,1.1C70.7,278.3,70.4,277.9,69.9,277.5z"/>
	<path class="st0" d="M3.1,200.1c0.1,0.5,0,1.5,0.8,1.6C4.6,201.1,3.8,199.9,3.1,200.1z"/>
	<path class="st0" d="M1.2,191.3c0,0.6,0.7,1.8,1.4,1.9C4.3,192.3,2.6,189.4,1.2,191.3z"/>
	<path class="st0" d="M61.8,256.4c0.6-0.4,0.5-1.2-0.3-1.2C61,255.5,61.3,256,61.8,256.4z"/>
	<path class="st0" d="M122.9,317.5c0.8,0.2,1.6-0.8,0.7-1.5C122.8,316,122.5,316.9,122.9,317.5z"/>
	<path class="st0" d="M51.9,238.3c0.3,0.4,0.6,0.6,0.9,0.6c0.4-0.4,0.4-0.8,0.1-1.2C52.5,237.8,52.2,238,51.9,238.3z"/>
	<path class="st0" d="M25,172.7c-0.8,1.1,0,3.1,1.4,3.4C26.7,175,26.4,173.3,25,172.7z"/>
	<path class="st0" d="M65.6,203.9c-0.5,0.3-0.3,0.7,0.1,1.1C66.2,204.6,66,204.3,65.6,203.9z"/>
	<path class="st0" d="M114.4,250.5c-0.9,1.3-1.1,3.6,0.6,4.1C116.3,253.4,116,251.4,114.4,250.5z"/>
	<path class="st0" d="M62.1,193.7c-0.3,0.1-0.5,0.1-0.8,0.4c0,0.4,0.5,1,0.9,0.6C62,194.4,62.7,194.1,62.1,193.7z"/>
	<path class="st0" d="M1.2,124.4c0.5,0.8,1.1,1,1.6,0.8c0.9-0.8,0.6-1.8,0.9-2.9c0.8-2.7,3.5-5.4,1.3-8.2
		C1.1,116.3,2.4,121.1,1.2,124.4z"/>
	<path class="st0" d="M147.8,280.2c0.2-0.2,0.4,0.1,0.6,0c-0.2-0.2,0-0.4-0.3-0.6C147.9,279.8,147.6,280,147.8,280.2z"/>
	<path class="st0" d="M107.8,229.2c-0.7,0.5-0.6,1.1,0.1,1.7c0.3,0,0.6-0.2,0.9-0.6C108.8,229.9,108.2,229.2,107.8,229.2z"/>
	<path class="st0" d="M2.7,114.3c0.2-0.2,0.3-0.4,0.3-0.6c-0.3-0.5-0.7-0.3-1.1,0.1C2.2,114.1,2.5,114.3,2.7,114.3z"/>
	<path class="st0" d="M33.6,147.3c0.8,1.1,1.6,0.9,2.4,0.4C35.2,147.1,34.4,146.6,33.6,147.3z"/>
	<path class="st0" d="M16.4,110c-1.9,1.1-3,3.5-2.2,5.2C15.7,114.7,18.2,111.7,16.4,110z"/>
	<path class="st0" d="M52.8,144.6c-1,0.9-0.3,1.9,0.3,2.9C53.9,146.6,53.9,145.7,52.8,144.6z"/>
	<path class="st0" d="M0.5,87.6c0.5-1-0.7-2.4-1.8-1.6C-1.9,86.9-0.2,88.2,0.5,87.6z"/>
	<path class="st0" d="M98.8,191.3c-0.2,0.2-0.4,0.4-0.6,0.6c0.2,0.2,0.4,0.4,0.6,0.6C99.3,192.1,99.3,191.7,98.8,191.3z"/>
	<path class="st0" d="M45.7,132.7c0.2-0.7,0.3-1.5-0.5-1.9C43.3,130.9,44.3,133.8,45.7,132.7z"/>
	<path class="st0" d="M39.1,123c-0.1-0.1-0.2-0.2-0.3-0.3c-0.4,0-0.5,0.2-0.3,0.6C38.6,123.1,38.8,123.2,39.1,123z"/>
	<path class="st0" d="M59.6,142.8c1.3-0.4,1.6-1.9,0.3-3.2C58.2,140,58.1,142.3,59.6,142.8z"/>
	<path class="st0" d="M45.7,122.2c0-0.4-0.6-1.1-1-1.1c-0.7,0.5-0.6,1.1,0.1,1.7C45,122.3,45.3,122.7,45.7,122.2z"/>
	<path class="st0" d="M34,109.5c-0.4-0.4-0.8-0.8-1.2-1.3c-0.2,0.2-0.4,0.2-0.6,0.3C32.3,109.6,33.4,109.7,34,109.5z"/>
	<path class="st0" d="M72,144c-2.4,0.6-5-1.9-7.3-0.6c0.2,0.7,0.5,0.6,1,1.1c2.8-0.9,5.6,0.9,8.4,0.5C73.1,144.2,72.7,145,72,144z"
		/>
	<path class="st0" d="M61.9,128.7c-0.4,0.3-0.7,0.2-1.1,0.7C60.5,131.9,64.3,130.4,61.9,128.7z"/>
	<path class="st0" d="M47.7,114.3c-0.1-0.4,0.1-0.9-0.6-0.9C46.4,113.8,47.2,114.4,47.7,114.3z"/>
	<path class="st0" d="M1.4,63.8c0.5-0.3,0.2-1.5-0.4-1.4C1,62.9,0.7,63.7,1.4,63.8z"/>
	<path class="st0" d="M76.6,132.1c1.1,2,3.6,1.6,5.3,1.9C80.1,133,78.4,131.7,76.6,132.1z"/>
	<path class="st0" d="M55.5,103c0.5-1.1,0.7-2.3-0.6-3.5C54,100.5,54.5,102.4,55.5,103z"/>
	<path class="st0" d="M15.2,59c0.7-0.6,0.8-1.3-0.1-2C14,57.6,14.2,58.8,15.2,59z"/>
	<path class="st0" d="M22.5,54.9c0.7,0,1.3-1,0.7-1.5c-0.2,0.1-0.3,0-0.5-0.2c-0.3,0.2-0.5,0.5-0.8,0.7
		C22.3,54.3,21.9,54.6,22.5,54.9z"/>
	<path class="st0" d="M7.3,32.9c0.1-0.5-0.4-1.4-1-1.4c-0.6,0.3-0.2,0.6-0.7,0.9c0.3,0.3,0.6,0.6,0.9,1C6.8,33,7.1,33.1,7.3,32.9z"
		/>
	<path class="st0" d="M65.2,95.3c0,0.9,1.3,1,1.8,1.3C66.2,96,66.1,94.7,65.2,95.3z"/>
	<path class="st0" d="M25.8,34.6c-0.9,0-2.2,1.2-1.3,2.1C25.3,36.5,26.3,35.3,25.8,34.6z"/>
	<path class="st0" d="M21.8,32.4c-0.9-1.9-3.9-5.5-5.5-4.6C18.7,29,19.9,32.9,21.8,32.4z"/>
	<path class="st0" d="M55.6,59.7c-0.2-1-0.1-2.2-1.4-2.8C50.8,57,52.8,63.7,55.6,59.7z"/>
	<path class="st0" d="M66.3,73.2c2-1.8,1.9-4.2-0.5-5.4c-1.7,0.6-1.3,2.2-2,3.3C64.9,72.2,65.1,73.2,66.3,73.2z"/>
	<path class="st0" d="M91.5,99.5c-1,0.8-0.4,2,0.7,2C93.4,100.6,92.5,99.4,91.5,99.5z"/>
	<path class="st0" d="M87.4,91.3C85,92.7,86,95.9,88,96.1C88.9,94.5,89.4,92.4,87.4,91.3z"/>
	<path class="st0" d="M34.4,34.7c0.8-0.3-0.6-0.9-0.6-0.3C33.8,34.6,34.3,34.7,34.4,34.7z"/>
	<path class="st0" d="M49.4,42.5C49,41.8,48.5,42,48,42.6c0.2,0.2,0.2,0.4,0.3,0.6C48.9,43.2,49.1,43.1,49.4,42.5z"/>
	<path class="st0" d="M108.8,105.6c-0.6-1.1-1.3-2-2.4-1C106.6,105.6,108,106.6,108.8,105.6z"/>
	<path class="st0" d="M72.7,52.7c-0.3,0.4-0.6,0.8-0.1,1.2C73.6,54,73.6,52.7,72.7,52.7z"/>
	<path class="st0" d="M74.9,55.1c0.4,1,1.2,1.7,2.1,0.7C76.9,54.9,75.6,53.9,74.9,55.1z"/>
	<path class="st0" d="M71.9,35.8c-0.3,0.1-0.6,0.1-0.9,0c-2.7,2.8-1.5,5.6,0.3,8C73.4,41.8,74.1,38.5,71.9,35.8z"/>
	<path class="st0" d="M68.1,37.4c2-2,3-4.8,0.7-6.5C65.4,31,65.3,36.9,68.1,37.4z"/>
	<path class="st0" d="M140,108.8c0.4,0.6,0.9,0.7,1.4,0.5C141.3,108.8,140.5,108.7,140,108.8z"/>
	<path class="st0" d="M90,46.6c-3.1,2.1-0.7,6.6,1.4,8.9C93.7,54.6,92.6,48,90,46.6z"/>
	<path class="st0" d="M62,17.9c1-1.8-2-3-3.3-2C59.2,17.7,61,17.2,62,17.9z"/>
	<path class="st0" d="M70.4,25.9c2.5,1.5,2.7,4.9,5.5,6.7c-0.3-0.7-1.9-2.6-0.4-2.3c-2.7-1.4-2.7-4.5-4.9-5.8
		C70,24.9,70.6,25.4,70.4,25.9z"/>
	<path class="st0" d="M80.8,36.8c0.2,0.3,0.5,0.5,0.7,0.8C82.7,37,81.5,35.7,80.8,36.8z"/>
	<path class="st0" d="M79,32.6c-0.4-0.5-0.9-1-1.3-0.8C78.1,32.2,78.5,32.6,79,32.6z"/>
	<path class="st0" d="M81.2,34.1c-0.6-0.3-2-1.8-2.1-1C79.8,33.2,80.4,34.6,81.2,34.1z"/>
	<path class="st0" d="M84.3,36.2c1.3-0.9,0.8-1.9-0.3-2.9C82.5,33.9,82.5,35.8,84.3,36.2z"/>
	<path class="st0" d="M116.8,69.6c2.3-1.4,1.2-4.1-0.7-4.3C114.2,66.6,115.1,69.1,116.8,69.6z"/>
	<path class="st0" d="M84.1,30.9c0.3,0.2,0.7,0.6,1,0.5C84.8,31.1,84.5,30.2,84.1,30.9z"/>
	<path class="st0" d="M75,17.9c-0.9,1.7,2,4.4,2.8,5.6C77.2,21.7,76.3,19.8,75,17.9z"/>
	<path class="st0" d="M121,64.6c0.6-1.4,2.3-1.7,2.9-2.6c-0.9-1.4-2.5-3.2-3.9-2.3c-0.7,0.5-0.4,2.3-1.2,3.2
		C119.5,63.9,120,64.5,121,64.6z"/>
	<path class="st0" d="M117.2,59.8c0.1,0.8,1.2,1.6,1.8,0.7C119.2,59.8,118,58.8,117.2,59.8z"/>
	<path class="st0" d="M132.1,68.7c0.5,0.4,0.8,1.3,1.3,1.7c3.3,3.2,6.9,5.7,9.7,9c1.4,1.7,3,3.3,3.9,5.2c1.5,0.3,2.6,1.9,4,3.7
		c-0.7,1.7,0.4,4.3,1.6,5.6c-0.3-1.8-0.5-3.6-1.1-5.4c5.2,4.3,10,11.3,15.7,10.8c0.6-0.9-0.7-2-0.3-2.9c0.4,0,0.8,0.7,1.2,0.4
		c-4.6-4.1-9.5-9-14.3-12.1c-0.3-0.5,0.3-0.9-0.4-1.4c-0.7-0.6-1.5,0.6-2.1-0.1c-1.7-2.1-3.7-3.2-5.4-5c-2.7-2.8-5.3-5.3-7.9-7.7
		c-4.2-3.8-6.7-8.6-11.8-10.6c-0.9,0.4-1.1,1-1.6,1.8C125.2,65.5,129.5,66.3,132.1,68.7z"/>
	<path class="st0" d="M178,113.1c-1.1-1.5-2.1-1.3-3.6-1.7c-0.6-0.8-1.2-0.8-1.8-0.1C173.8,112.6,176.3,113.7,178,113.1z"/>
	<path class="st0" d="M114.2,42.4c-0.2-0.7-0.8-1.3-1.5-0.4C112.9,42.7,113.5,43.3,114.2,42.4z"/>
	<path class="st0" d="M174.7,108.2c-0.4-0.4-0.8-0.9-1.2-1.3c-0.2,0.2-0.4,0.4-0.6,0.6C173.5,108.2,174.1,108.2,174.7,108.2z"/>
	<path class="st0" d="M89.9,16.3c0.6-0.4,0.6-0.8,0.1-1.2c-0.2,0.2-0.4,0.2-0.6,0.3C89.8,15.6,89.4,15.9,89.9,16.3z"/>
	<path class="st0" d="M138.2,65.8c0-0.6-0.2-1-0.9-1.3C136.5,65.2,137.5,66.1,138.2,65.8z"/>
	<path class="st0" d="M308.5,250.3c0.1,0.3,0.1,0.5,0.4,0.8c0.4,0,1-0.5,1-0.9C309.4,249.8,308.9,249.8,308.5,250.3z"/>
	<path class="st0" d="M188.1,117.6c0.4-0.7,0.6-1.4-0.2-2.2c-0.4,0.3-0.8,0.3-1.3,0.9C186.6,117.2,187.3,117.5,188.1,117.6z"/>
	<path class="st0" d="M98.9,20.9c-0.5-0.5,0.1-1.5-0.9-1.6C97.4,19.8,98.3,21,98.9,20.9z"/>
	<path class="st0" d="M328.4,269.4c0.1,0.8-0.2,1.2,0.7,1.7c0.6-0.2,0.7-0.6,1-1.2C329.5,269.4,329,268.9,328.4,269.4z"/>
	<path class="st0" d="M158.2,75.7c2.3,2.2,4.2,5.2,6.6,7l0,0c0.1,0.6,0.5,0.8,1.1,0.7c0.6,0.4,1.3,0.7,2,0.9
		c-1.9-3.5-6.9-6.4-8.7-9.5c-0.8-1.4-1.7-3.5-3.8-2.9C155.1,73.9,157,74.5,158.2,75.7z"/>
	<path class="st0" d="M197.5,115.2c-0.1,0.6,1.1,1.3,1.4,1.9C200.1,116.3,198.2,114.6,197.5,115.2z"/>
	<path class="st0" d="M165,79.1c-0.2,0.8,1,1.9,1.7,2.2C167.2,80.4,165.8,79.2,165,79.1z"/>
	<path class="st0" d="M192.8,101.4c-0.3-0.6-0.5-1.5-1.2-1.3c0.1,0.2,0,0.3-0.2,0.5C192.2,100.8,192,101.5,192.8,101.4z"/>
	<path class="st0" d="M197.2,102c0.4-0.3,0.4-0.6,0-0.9C196.8,101.4,196.8,101.7,197.2,102z"/>
	<path class="st0" d="M173.5,73.9c0.6-0.3,0.4-0.7,0.8-1c-2.1-3.1-4.9-6.6-6.6-10.1c-0.7-1.5-0.5-4-2.7-3.9
		c-1.7,1.6,0.9,3.3,1.8,4.8c0.4,0.6,0.4,1.3,0.7,2C168.8,68.8,170.7,71.7,173.5,73.9z"/>
	<path class="st0" d="M175.6,74.3c0.3,0.8,1.7,2.4,2.5,2.7C176.9,76.1,176.7,74.6,175.6,74.3z"/>
	<path class="st0" d="M190,87.2c-0.1-0.5,0.2-1.2,0.1-1.8c-0.3-1.8-1.4-4.8-2.6-6.7c-1.9-2.8-4.5-5-6.2-7.8c-0.7-1.2-1.3-2.6-2-3.8
		c-0.8-1.4-1.8-2.6-2.3-3.8c-0.4-1-1.4-4.1-2.5-5c-2.7-2.3-4.2,1.6-2.7,3.4c7.8,9.6,12.1,21.5,20.4,30.4
		C192.9,91,190.6,89.2,190,87.2z"/>
	<path class="st0" d="M157.3,51.2c0,0.4,0.6,1.2,1,0.8C157.7,51.6,158,50.8,157.3,51.2z"/>
	<path class="st0" d="M179,60.8c0.6,0.9,0.5,2.3,1.7,2.8c-0.6,0.6-0.8,1.2-0.4,1.8c0.7,1,1.4,0.7,2.1,1c0.6,2.2,2.8,3.3,4.2,5.2
		c1.4,1.9,2.2,4.1,3.7,6c2.5,3,5.5,6,5.4,9.7c1.5,2.1,2.3,5.5,4.8,8.2c-0.2,2.8,2.6,2.6,4.1,4.1c0.4,0.4,0.5,1,0.9,1.3
		s1.2,0.1,2,0.5c1.2,0.7,1.9,2.3,3.1,1.5c0-2.5-1-4.1-2.2-6.5c-0.6-1.3-0.8-2.7-1.4-4c-1.5-4-4.7-6.9-7.2-10.1
		c-2-0.6-2.4-2.9-4.3-3.1c-3.5-3.7-5.4-7.7-7.6-11.8c0.7,0,1.3,0.5,2,0.2c0-1.2-0.8-2.3-2.2-2.7c-0.8,0.7-0.4,1.4-1,0.9
		c-4-5.9-8.5-9.7-10.5-15.3c-2.2-0.9-3.8-4.9-6-3.3c-2.2,1.6,0.6,5,2.2,6.5C174.8,56.1,177.5,58.4,179,60.8z"/>
	<path class="st0" d="M165.7,55.4c-0.1-0.4-1-2-1.6-1.4C164.7,54.3,165.2,55.5,165.7,55.4z"/>
	<path class="st0" d="M162.4,51.1c-0.7-0.4-0.5-1.4-1.2-1C161.6,50.4,162,51.4,162.4,51.1z"/>
	<path class="st0" d="M168.3,51.8c0.2,1.2,1.7,2.5,2.6,3.8C171,54.5,169.9,51.1,168.3,51.8z"/>
	<path class="st0" d="M138.7,19.2c0.4-0.3,0.7-0.7,1.1-1c0.3-2.3-1.5-5.3-4.1-4.5C134.7,15.6,136.4,18.9,138.7,19.2z"/>
	<path class="st0" d="M144.5,20.6c2-1.8,0.1-5.9-2.4-4.8C141.3,18,142.2,20,144.5,20.6z"/>
	<path class="st0" d="M202.1,83.7c0,0.3,0.5,0.4,0.6,0.3C203.5,83.7,202.1,83.2,202.1,83.7z"/>
	<path class="st0" d="M205.5,81.1c-0.7-2.3-2.4-3.9-3.6-6.1c-3.6-0.1-1.3,3.2,0.2,5.4c2.3,3.3,4.5,9,8.4,11.4
		c0.1-3.8-3.7-6.1-4.8-9.1C205.5,82.2,205.6,81.6,205.5,81.1z"/>
	<path class="st0" d="M208.1,82.5c-0.2-0.4-0.6-1.4-1.2-1C207.2,81.9,207.5,82.9,208.1,82.5z"/>
	<path class="st0" d="M153.5,22.9c0.2-0.1,0.3-0.3,0.5-0.4C153.8,21.7,152.9,22.6,153.5,22.9z"/>
	<path class="st0" d="M168.8,20.8c2.4-2.2-2.5-9.4-5.2-6.9C161.2,16,166,21.3,168.8,20.8z"/>
	<path class="st0" d="M196,50.7c0.2-0.6,0.2-1.2-0.5-1.9C193.3,48.6,194.2,52.5,196,50.7z"/>
	<path class="st0" d="M203.9,59.6c-0.1,0.1-0.2,0.2-0.3,0.3C203.3,60.7,204.7,60.3,203.9,59.6z"/>
	<path class="st0" d="M158.7,3.1c0.2-0.8-0.9-2.7-1.9-1.5C156.3,2.5,158,4.2,158.7,3.1z"/>
	<path class="st0" d="M359.5,215.4c-0.9-0.8-2.2-1.1-3.1-0.8c-0.1-0.2-0.2-0.5-0.3-0.7c-0.5,0.1-0.7,0.4-0.9,0.6
		c0.1,0.3,0.2,0.5,0.4,0.6c-1.5-0.1-3.1,0.1-4.3-0.7c-0.9,0.7-1.1,0.1-1.9,0.1c0.2-1,0.1-2.1,0-2.7c-0.8-2.8-4-5-7-3.1
		c-2.7,2.7,2.5,9.1,5.7,7.9c0.6-0.3,1-1,1.2-1.8c2.5,1.1,5.4,0.5,7.7,2.2c0.7-0.3,0.9-0.1,1.3-0.7c-0.1-0.1-0.3-0.2-0.4-0.3
		C358.6,216,359.2,216,359.5,215.4z"/>
	<path class="st0" d="M213.7,57.9C213.1,56.2,212.5,57.5,213.7,57.9L213.7,57.9z"/>
	<path class="st0" d="M239.5,77.4c0.2,1.8,2.3,2.8,3.6,1.7C243.5,77.3,241.6,74.6,239.5,77.4z"/>
	<path class="st0" d="M323,162.8c-0.2-0.6-0.1-0.8-0.7-1.1C321.6,162.3,322.3,163.2,323,162.8z"/>
	<path class="st0" d="M370.6,203.9c-1.4-1.2-3.5-0.5-5.2-0.5c-1.6,0-3.9-0.5-5.1,0.8c1.2,1,3,0.9,4.6,0.7c0.4,0.6,1.4,0.9,1.8-0.2
		c0.5,0,1-0.1,1.4,0C369.6,204.9,369.9,205.6,370.6,203.9z"/>
	<path class="st0" d="M337.9,178.1c-0.6,0.5-0.4,1.6,0.4,1.7c0.6-0.5,0.6-1.1,0.2-1.7C338.3,178.2,338.1,178.2,337.9,178.1z"/>
	<path class="st0" d="M275.3,105.7c0.7-1.4,3.4-2.7,2.6-4.2C277.3,102.4,275.4,104.4,275.3,105.7z"/>
	<path class="st0" d="M212.4,16.4c-0.2-0.7-0.4-1.2-1.2-1.3C210,15.9,211.3,18,212.4,16.4z"/>
	<path class="st0" d="M209.5,12.3C207.3,14.9,212.6,13.9,209.5,12.3L209.5,12.3z"/>
	<path class="st0" d="M318.4,128.7c0.5-0.2,1.8,0.2,1.4-0.7C319.4,128.1,318.2,128.2,318.4,128.7z"/>
	<path class="st0" d="M339.8,147.7c1.2-1.7,0.8-4.2-1.3-5.6C336.5,143.8,338.4,146.4,339.8,147.7z"/>
	<path class="st0" d="M266,59.3c3-1.9,2.2-5.8,0-7.6c-0.9-0.7-3.7-1.9-4.9-0.8C258.7,53.2,262.4,60.7,266,59.3z"/>
	<path class="st0" d="M238.3,24.2c3.3-2.9-3.2-9.4-5.7-6.8c-1.3,1.4,0.9,5.7,1.7,6.3C236,25.2,237,25.4,238.3,24.2z"/>
	<path class="st0" d="M388.5,161.3c0.1,0.2,0.3,0.3,0.4,0.5c0.2-0.1,0.3-0.3,0.5-0.4c-0.1-0.1-0.2-0.2-0.3-0.3
		C388.9,161.3,388.7,161.1,388.5,161.3z"/>
	<path class="st0" d="M313.3,70.3c-0.3-0.6-0.7-0.3-1-0.5c-0.4,0.4-0.4,0.9,0.1,1.4C312.7,71.2,313.3,70.7,313.3,70.3z"/>
	<path class="st0" d="M264.3,95c-1.7,0.6-3,4.6-2.8,5.8C262.6,98.9,263.3,97,264.3,95z"/>
	<path class="st0" d="M141.4,94.4c2,1.9,4.6,2.3,6.6,3.6c1.8,1.3,3.5,3.3,6.1,2.9c-0.3-0.8-1.2-1.6-1.9-2.1c0.8-0.2,0.5-0.5,0.5-1
		c-2.7-1.4-3.7-4.5-5.7-6.2c-0.5-0.5-1.3-0.5-1.9-0.8c-1.4-0.8-2.5-2.2-4-3.4c-3.4-2.7-7.8-4.6-10.7-7.2c-2.7-2.4-4.7-4.2-6.7-6.7
		c-1.7-0.1-3.2-3-4.7-1.3c-0.8,0.9,0.3,2.6,1.2,3.6c1.2,1.3,4.2,2.3,6.4,4.1c2.1,1.7,3.6,3.6,4.8,5.2c-0.7,2.2,1.3,2.8,2.6,3.5
		c2.9,1.6,6.5,4.3,8.5,4.2C141.6,93,141.4,93.7,141.4,94.4z M147.9,96.3c-1.4-0.5-2.6-1.1-3.4-2.4C145.6,94.4,146.7,95.1,147.9,96.3
		z"/>
	<path class="st0" d="M322.6,391.2c0,0.1,0,0.3,0.1,0.4C323.1,392.3,323.6,390.9,322.6,391.2z"/>
	<path class="st0" d="M146.9,391.5c0,0.3,0,0.5-0.1,0.7c0.6-0.2,0.7,0.3,1.3,0.1C148,391.7,147.6,391.4,146.9,391.5z"/>
	<path class="st0" d="M241.1,378.1c0,0.6,0.4,0.7,0.9,0.5C242.2,377.9,241.7,377.9,241.1,378.1z"/>
	<path class="st0" d="M58.8,398.4c-0.6,0.7,0.7,1.6,0.1,2.4c0.8-0.2,2.2,0,2.5-0.5C60.6,399.6,60.4,398.2,58.8,398.4z"/>
	<path class="st0" d="M139.2,387.6c0.5,0.2,1.2,0.8,1.8,0.2C140.9,386.9,139.5,386.8,139.2,387.6z"/>
	<path class="st0" d="M97.1,389.1c0,0.8,0.4,1.1,1.2,0.9c0.3-0.3,0.2-1-0.2-1.3C97.6,388.7,97.3,388.8,97.1,389.1z"/>
	<path class="st0" d="M20.7,398.8c0.5,0.6,2.5,0.8,2.3-0.5C22.6,397.8,20.4,397.7,20.7,398.8z"/>
	<path class="st0" d="M131,384c0.5,0.3,1.8,0.5,2.4-0.1C133.6,382,130.2,381.7,131,384z"/>
	<path class="st0" d="M114.3,384.3c-1.3,0.2-1.3,1.3-1.5,2.3c1.4,0,1.9-0.7,2-1.8C114.5,384.9,114.5,384.5,114.3,384.3z"/>
	<path class="st0" d="M218,372c0,0.7,0.5,0.6,1.2,0.5C219.1,371.8,218.4,371.4,218,372z"/>
	<path class="st0" d="M119.6,383.5c-0.4,0-0.3-0.6-0.9-0.3c0,0.5,0.2,0.8,0.5,0.8C119.2,383.7,119.6,383.7,119.6,383.5z"/>
	<path class="st0" d="M45.6,388.9c-0.7,0.1-1,0.5-0.9,1.2c0.5,0.4,1.1-0.1,1.5-0.4C46.3,389.1,45.7,389.3,45.6,388.9z"/>
	<path class="st0" d="M303.6,356.7c-0.5,0.7,0.2,1.4,0.8,1.4C305,357.6,304.7,356.4,303.6,356.7z"/>
	<path class="st0" d="M198.8,368.9c-0.2,0.3-0.2,0.6-0.1,1.1c0.5,0,0.8-0.1,1-0.3C199.7,369.1,199.4,368.9,198.8,368.9z"/>
	<path class="st0" d="M76.9,369.4c0,0.3,0.1,0.6,0.1,0.9c0.5,0,1-0.1,1-0.6C77.6,369.6,77.5,369.1,76.9,369.4z"/>
	<path class="st0" d="M48,372.9c0,0.3,0.1,0.6,0.1,0.9c0.3,0,0.6-0.1,0.9-0.1C49.1,372.9,48.8,372.7,48,372.9z"/>
	<path class="st0" d="M15.9,371c0,0.2,0.1,0.4,0.1,0.6c0.1,0,0.3,0,0.4-0.1c0-0.3,0.2-0.3,0.1-0.7C16.4,370.9,16.2,371,15.9,371z"/>
	<path class="st0" d="M75.4,363c0,0.4-0.5,0.3-0.3,0.9c0.3,0,0.4,0.3,0.9,0.1C76,363.5,75.9,363,75.4,363z"/>
	<path class="st0" d="M133.2,354.6c-0.7-0.9-2.2-1.7-3.6-0.9C130.1,355,132.1,355.6,133.2,354.6z"/>
	<path class="st0" d="M70.9,360.1c1,0.3,3,0.7,3.9-0.3c0-0.4-0.3-0.4-0.3-0.8C73.6,358.9,70.7,358.7,70.9,360.1z"/>
	<path class="st0" d="M30.5,359.2c-1,1.3,0,3.8,1.6,3.9C33.5,362.3,33,358.4,30.5,359.2z"/>
	<path class="st0" d="M179.5,339.4c0-0.6-0.4-0.7-0.9-0.5C178.6,339.5,179,339.6,179.5,339.4z"/>
	<path class="st0" d="M54.9,349c-0.5,1.5,0.4,3.2,1.9,3C57.6,350.9,56.6,349,54.9,349z"/>
	<path class="st0" d="M168.2,335.8c0,0.3-0.3,0.4-0.1,0.9c0.3,0.3,1.1,0.2,1-0.3C168.7,336.3,168.9,335.6,168.2,335.8z"/>
	<path class="st0" d="M76.3,341.9c-1.8-2.3-2.4-6-5.9-5.8c-0.5,4.4,4.2,6.1,6.1,9c1,0,1.4-0.3,1.6-0.9C78,343.1,77,342.8,76.3,341.9
		z"/>
	<path class="st0" d="M288.2,315.6c0.1,0.2,0,0.6,0.3,0.6c0-0.3,0.4-0.2,0.4-0.5C288.6,315.8,288.5,315.5,288.2,315.6z"/>
	<path class="st0" d="M16.9,348.9c1.6,0.6,2.6-1.3,3.9-2c2.2-1.2,5.2-1.7,6-4c-3,0.9-4.9,2.7-7.3,3.9C18,347,16.8,347.5,16.9,348.9z
		"/>
	<path class="st0" d="M59.7,340.3c-0.8-1.7-3.5-2-3.9,0C56.3,341.6,59.4,342.1,59.7,340.3z"/>
	<path class="st0" d="M6.5,345.8c0.4,1.2,4.1,1.6,4.1-0.3C9.7,344.8,7,344.4,6.5,345.8z"/>
	<path class="st0" d="M68.3,338.3c0.4,0,0.7-0.1,0.8-0.3c0-0.3-0.2-0.5-0.3-0.6C68.2,337.4,68.1,337.8,68.3,338.3z"/>
	<path class="st0" d="M55.6,339c-0.3-0.7-0.8-1.3-1.9-1.1c0.2,0.5-0.3,0.5-0.1,1.1c0.3,0.6,1.1,0.6,1.6,0.9
		C55.3,339.5,55.3,339.2,55.6,339z"/>
	<path class="st0" d="M113.9,332.1c1.3,0,1.6-0.8,1.7-1.7C114.7,330.6,113.8,331,113.9,332.1z"/>
	<path class="st0" d="M34.8,334c0.3,0.6-0.2,0.6-0.1,1.1c0.4,0.4,0.6,0.9,1.4,0.7C36.2,334.8,36,333.8,34.8,334z"/>
	<path class="st0" d="M47.8,332.4c0,0.3,0.1,0.6,0.1,0.9c0.2,0,0.4-0.1,0.6-0.1C48.6,332.6,48.4,332.2,47.8,332.4z"/>
	<path class="st0" d="M73.5,324.4c-0.2,2.2,1.1,4.5,3,4.8C76.9,327.7,76,323.9,73.5,324.4z"/>
	<path class="st0" d="M36.6,333.1c0.1,0.4-0.2,0.5-0.1,0.9c0.3,0,0.5,0,0.7,0.1c0-0.4,0.5-0.5,0.5-0.9C37.4,333,37.1,333,36.6,333.1
		z"/>
	<path class="st0" d="M55.2,319.9c0.8,1.3,2.8,1.1,3.7,2.2c-4.7,2.4-9,5.8-14.1,7.6c-1,0.3-2.5,0.6-2.6,2.1c1.9,1.3,3.4-0.8,5-1.7
		c4.6-2.6,10.1-4.4,12.8-7.7c0.7,0.6,1.7,0.8,2.9,0.7C61.4,320.9,57.7,321.1,55.2,319.9z"/>
	<path class="st0" d="M9.4,335.4c1.4,0.9,4.6,1.1,5.8-0.7C13.8,333.5,10.1,333.4,9.4,335.4z"/>
	<path class="st0" d="M21.2,330.9c0.3,0.3,1,0.2,1.3-0.2c0-0.3-0.2-0.5-0.3-0.6C21.6,330.2,21.3,330.4,21.2,330.9z"/>
	<path class="st0" d="M122.9,314.9c0.2,1.4,1.4,1.4,2.6,1.4C125.2,315.1,124.4,314.5,122.9,314.9z"/>
	<path class="st0" d="M43.9,324.8c0.3,1,2.3,0.4,2.3-0.5C45.7,323.3,43.9,323.5,43.9,324.8z"/>
	<path class="st0" d="M16.5,325.8c0,0.3,0,0.5-0.1,0.7c0.3,0,0.4,0.3,0.9,0.1C17.2,326,17,325.7,16.5,325.8z"/>
	<path class="st0" d="M107.3,313.1c-1,1.5,1.9,2.4,1.8,0.6C108.7,313.2,108.1,312.6,107.3,313.1z"/>
	<path class="st0" d="M19.1,320.3c-0.6,1.7,0.8,4.6,2.6,4.9C22.1,323.5,20.8,320.5,19.1,320.3z"/>
	<path class="st0" d="M97.4,313.4c-0.1,0-0.3,0-0.4,0.1c-0.2,0.3-0.2,0.6,0.3,0.6C97.2,313.8,97.5,313.8,97.4,313.4z"/>
	<path class="st0" d="M122.9,306.2c-0.6,1.6,1.2,3,2.4,2.1C125.8,307,124.7,305.9,122.9,306.2z"/>
	<path class="st0" d="M100.6,307.6c-0.3-0.3-1.3-0.2-1.5,0.2c0,0.9,0.6,1.1,1.4,0.9C100.3,308.2,100.8,308.2,100.6,307.6z"/>
	<path class="st0" d="M20.9,317.4c0.1,0.4-0.5,0.3-0.3,0.9c0.5,0.4,1.4,0,1.4-0.6C21.5,317.7,21.4,317.3,20.9,317.4z"/>
	<path class="st0" d="M81.6,310.6c0.9,0.5,1.6-0.3,1.8-0.9c-0.6,0.1-1.1,0.1-1.7,0.2C81.8,310.2,81.7,310.4,81.6,310.6z"/>
	<path class="st0" d="M135.6,297.8c-1.2,0.3-0.7,1.1-2,1.1c-1,2.3-4.4,3-4.8,5.6c0.7,0.2,0.7,0,1.5-0.2
		C131.2,301.4,134.3,300.2,135.6,297.8z"/>
	<path class="st0" d="M14.1,315.4c-0.6,0.1-1.2,0.1-1.5,0.4C12.8,316.7,14.6,316.9,14.1,315.4z"/>
	<path class="st0" d="M115.2,298.2c0.1,0.5-0.3,0.7-0.1,1.3C117,301.2,118,297.3,115.2,298.2z"/>
	<path class="st0" d="M94.1,301.2c0,0.9,1,0.6,1.1,0.1C94.8,301.2,94.5,300.7,94.1,301.2z"/>
	<path class="st0" d="M25.9,309.2c0.4,0.3,0.9,1,1.4,0.5C27.3,309,26.1,308.7,25.9,309.2z"/>
	<path class="st0" d="M131.2,285c-1.8,0.9-3.9,1.5-4.6,3.2C128.8,288.5,130,286.2,131.2,285z"/>
	<path class="st0" d="M346,258.8c-0.1,2.3,6.3,2.8,7,0.2C351.9,257.9,346.2,256,346,258.8z"/>
	<path class="st0" d="M87.4,286.9c0.3,1.4,2.1,2,3.2,1.6C90,287.4,89.1,286.6,87.4,286.9z"/>
	<path class="st0" d="M31.4,295.8c-0.1-0.9-0.6-1.4-1.7-1.1C29.5,295.9,30.6,296.5,31.4,295.8z"/>
	<path class="st0" d="M32.3,287.4c0.4-0.6,0-1.6-0.8-1.4c0,0.2-0.2,0.3-0.4,0.3c0,0.4,0.1,0.7,0.1,1.1
		C31.7,287.2,31.7,287.7,32.3,287.4z"/>
	<path class="st0" d="M3.9,287c-0.1,0.6,0.4,0.5,0.3,1c0.4-0.1,0.9-0.1,1.3-0.2c-0.1-0.4,0.2-0.5,0.1-0.9
		C5.3,286.7,4.3,286.5,3.9,287z"/>
	<path class="st0" d="M92.1,275.5c-0.9,0.3-2-0.5-2.1,0.7C90.7,276.8,91.5,275.7,92.1,275.5z"/>
	<path class="st0" d="M18.7,275.2c0.4-0.8-0.1-2.3-0.9-2.3C17.3,273.6,17.5,275.4,18.7,275.2z"/>
	<path class="st0" d="M6.7,276.6c2.3-1.2,6.2,0.2,7-1.7C11.6,274.5,6.9,274.8,6.7,276.6z"/>
	<path class="st0" d="M55.4,263.3c-0.9-0.4-1.9-1.1-3.1-0.5C50.4,265.5,57.1,267.9,55.4,263.3z"/>
	<path class="st0" d="M72.6,262.4c-0.3-2.7-2.3-3.9-4.7-2.7c-0.5,1.7,1,2.3,1.5,3.5C71,263,71.9,263.4,72.6,262.4z"/>
	<path class="st0" d="M110.8,257.8c0-1.6-1.5-1.5-2-0.6C108.8,258.4,110.1,258.6,110.8,257.8z"/>
	<path class="st0" d="M99.6,255.7c-0.3,2.8,3,3.8,4.2,2.3C103.2,256.3,101.7,254.6,99.6,255.7z"/>
	<path class="st0" d="M22.7,266c0.2-0.8-1.1,0-0.6,0.3C22.3,266.4,22.7,266.1,22.7,266z"/>
	<path class="st0" d="M37.1,259.4c0.3,0,0.5,0,0.7,0.1c0.3-0.5,0.4-0.7,0.1-1.3C37,258.2,36.9,258.7,37.1,259.4z"/>
	<path class="st0" d="M123.6,246.7c-1.2-0.1-2.4-0.1-2.2,1.4C122.4,248.4,123.9,247.9,123.6,246.7z"/>
	<path class="st0" d="M60.7,246c0.6-0.7-0.5-1.5-1-0.8C59.9,245.7,60,246.2,60.7,246z"/>
	<path class="st0" d="M62.9,244.8c1.1,0.2,2.1,0,1.8-1.3C63.9,243.1,62.4,243.6,62.9,244.8z"/>
	<path class="st0" d="M45,236.8c0.7,3.9,3.6,4.5,6.6,4.4c-0.4-2.9-2.7-5.3-6.1-5.1C45.5,236.4,45.3,236.7,45,236.8z"/>
	<path class="st0" d="M44.5,240.1c-0.5-2.8-2.2-5.2-4.9-4.4C37.8,238.7,42.4,242.2,44.5,240.1z"/>
	<path class="st0" d="M72.7,231.7c0.7-2.4-5.4-5.3-8.1-4C64.7,231.4,69.6,232,72.7,231.7z"/>
	<path class="st0" d="M21.5,235.3c1.7,0.6,2.3-1.1,3.5-1.5C24.2,231.9,21.5,233.7,21.5,235.3z"/>
	<path class="st0" d="M45.1,230.9c-0.8-0.2-3.2,0-2.1-1c-2.7,1.5-5.2-0.3-7.5,0.7c0,0.7,0.7,0.6,1,1C39.2,230.4,42,232.2,45.1,230.9
		z"/>
	<path class="st0" d="M51.5,229.5c0.4,0,0.7-0.1,1.1-0.1C52.7,228,51,228.2,51.5,229.5z"/>
	<path class="st0" d="M45.6,229.1c0.5-0.2,1.2-0.3,1.4-0.6C46.3,228.6,45.7,228.7,45.6,229.1z"/>
	<path class="st0" d="M49.5,227.6c-0.6,0.3-2.6,0.6-2,1.1C47.9,228.1,49.5,228.5,49.5,227.6z"/>
	<path class="st0" d="M50.5,224.8c-0.4,1.5,1.2,2.6,2.6,1.4C53.1,224.6,52,224.5,50.5,224.8z"/>
	<path class="st0" d="M99,219.1c0.2-2.7-2.7-3.4-3.9-1.9C95.1,219.5,97.6,220.2,99,219.1z"/>
	<path class="st0" d="M48.6,223.3c0.4-0.2,0.9-0.2,1-0.6C49.2,222.9,48.2,222.6,48.6,223.3z"/>
	<path class="st0" d="M38.9,224.1c-1.9-0.5-3.9-0.9-6.2-1C33.5,224.8,37.3,224,38.9,224.1z"/>
	<path class="st0" d="M75.4,205.6c-0.7-0.2-1.5-0.1-1.2,1C74.9,206.8,75.7,206.6,75.4,205.6z"/>
	<path class="st0" d="M40,210c0-0.7-0.3-0.9-1-0.8c0,0.3,0,0.5-0.1,0.7C39.4,209.8,39.4,210.3,40,210z"/>
	<path class="st0" d="M108.4,199.5c-0.5-0.4-0.9-0.4-1.5,0C106.9,200.6,108.2,200.3,108.4,199.5z"/>
	<path class="st0" d="M357.4,168c0.3,0,0.4,0.3,0.9,0.1c0.3-0.3,0.2-1-0.2-1.3C357.6,167,357.3,167.3,357.4,168z"/>
	<path class="st0" d="M47.2,205.3c-0.1,0.7,1.5,0.7,1.8,0.2C48.3,205.6,47.8,204.6,47.2,205.3z"/>
	<path class="st0" d="M386.4,163.4c0.2-0.6-0.1-0.9-0.4-1.5c-0.8,0.1-1.5,0.3-1.4,1C385.3,163.3,385.5,163.9,386.4,163.4z"/>
	<path class="st0" d="M108.8,175.1c-0.7,0.3-1.2-0.4-1.3,0.4C107.9,175.8,108.9,175.7,108.8,175.1z"/>
	<path class="st0" d="M113.7,171.5c0.6-0.2,1.9,0,2.1-0.5C115.5,170.8,113.6,170.7,113.7,171.5z"/>
	<path class="st0" d="M109.1,171.6c0.4-0.2,1.4,0.1,1.5-0.4C109.8,171.6,109.1,170.8,109.1,171.6z"/>
	<path class="st0" d="M43.3,176.7c-0.7-0.6-1.2-1.5-2.4-1.5c-0.6,0.8-1.6,1.3-1.9,2.4C40.2,178,43.1,178.5,43.3,176.7z"/>
	<path class="st0" d="M70.6,172c-0.1-0.5-0.1-1-0.2-1.5c-1.7-1.6-5.2-1.9-6,0.7C65.5,173.2,69,173.8,70.6,172z"/>
	<path class="st0" d="M69.8,167.3c1.3,1.9,3.5,2.3,5.3,0.9C74.9,165.5,70.5,164.7,69.8,167.3z"/>
	<path class="st0" d="M82.2,162.1c0-0.2-0.1-0.4-0.1-0.6C81.5,161.2,81.7,162.5,82.2,162.1z"/>
	<path class="st0" d="M80.8,148.7c0.3,3.2,7.4,2.4,8.7-0.2C89.1,145.2,80.4,145,80.8,148.7z"/>
	<path class="st0" d="M67,147.1c0.3,1,2.7,0.6,2.3-0.7C68.7,145.8,66.6,145.5,67,147.1z"/>
	<path class="st0" d="M356.3,109.2c0.9-0.8,3-1.6,2.5-2.9C357.2,106.6,356,108.1,356.3,109.2z"/>
	<path class="st0" d="M293.7,105.3c-0.5-0.1-1-0.1-1.5,0c0.6,1.9,2.2,4.6,4.5,3.5c-0.2-1.4-1-2.5-2.1-3c0-0.1,0-0.1,0.1-0.2
		C294.2,105.3,294.1,105.2,293.7,105.3z"/>
	<path class="st0" d="M355,93.1c1-1.2,1.7-1,0.8-2.5c-1.8,0.5-2.4,2.6-3.4,3.9c-1,1.3-2.7,2.8-2.3,4.6
		C352.6,98.4,353.6,94.6,355,93.1z"/>
	<path class="st0" d="M317.3,102.9c-0.1-0.8-0.6-1.1-1.2-1.2c0,0.2-0.2,0.4-0.4,0.5C315.8,103.1,316.8,103.5,317.3,102.9z"/>
	<path class="st0" d="M218.6,106.6c0.3,1,0.8,3.7,1.9,4.6C219.8,109.8,220.3,106.8,218.6,106.6z"/>
	<path class="st0" d="M291.6,87.6c0.8,0.1,0.9-0.5,1.3-0.2c-0.1-0.5,0.3-0.7,0.1-1.3c-0.5-0.4-1.2,0-1.7,0.2
		C291.2,87,291.6,87.1,291.6,87.6z"/>
	<path class="st0" d="M264.5,87.9c-0.1,0.4-0.8,1.3-0.2,1.5C264.4,89,265.5,88.1,264.5,87.9z"/>
	<path class="st0" d="M292.2,83c-0.7-1.9-3-3.1-5.3-2.2C287.1,83.4,290.2,83.4,292.2,83z"/>
	<path class="st0" d="M177.3,91.7c0.2-3.6-3.4-5.2-6.2-4.5c-1.1,0.3-3.7,1.9-3.5,3.5C168.1,94.1,176.3,95.4,177.3,91.7z"/>
	<path class="st0" d="M332.3,51.2c0-0.2-0.1-0.4-0.1-0.6c-0.1,0-0.3,0-0.4,0.1c0,0.3-0.2,0.3-0.1,0.7
		C331.9,51.2,332.1,51.2,332.3,51.2z"/>
	<path class="st0" d="M213.9,61c0.3-0.3,0.2-1-0.2-1.3c-0.7-0.1-0.6,0.4-1,0.6C212.8,60.8,213.2,61.1,213.9,61z"/>
	<path class="st0" d="M208.5,119.5c-0.9-2.1-2.1-3.7-3.1-5.7C204.9,115.5,207.4,118.9,208.5,119.5z"/>
	<path class="st0" d="M249.7,398.9c-0.1-0.1-0.1-0.3-0.2-0.4C248.5,398.8,249.7,399.7,249.7,398.9z"/>
	<path class="st0" d="M393.6,298.1c-0.6,0.3-0.8,0.7-0.5,1.3c0.7-0.2,0.4-0.6,1-0.8C393.9,298.4,393.7,298.3,393.6,298.1z"/>
	<path class="st0" d="M308.6,341c-0.5,0.2-1,0.4-0.5,1C308.7,341.8,308.9,341.5,308.6,341z"/>
	<path class="st0" d="M469.8,253.1c-1.5,0.7-0.9,2-1.1,3c0.6,0.2,1.6-0.8,2.4-1C470.2,254.9,470.6,253.4,469.8,253.1z"/>
	<path class="st0" d="M396.2,291.6c0.8,0.2,1-0.7,1.3-1.2C396.9,289.9,395.7,290.8,396.2,291.6z"/>
	<path class="st0" d="M431.9,267.7c-0.1,0.4,0.2,1,0.6,1.1c0.7-0.3,0.9-0.8,0.4-1.5C432.7,267.3,432.3,267.4,431.9,267.7z"/>
	<path class="st0" d="M499,232.5c0.6,1.2,2.2-0.2,2.2-0.9C500.8,230.6,499,232,499,232.5z"/>
	<path class="st0" d="M400.3,284c0.8,0.1,1.8-0.8,2-1.3C401.6,280.4,398.9,282.6,400.3,284z"/>
	<path class="st0" d="M416.1,273.4c-0.1,0.2,0.2,0.6-0.1,0.8c0.7,0.8,1.5,1.2,2.6,0.3C417.9,273.8,417.3,272.8,416.1,273.4z"/>
	<path class="st0" d="M323.4,323.9c0.6-0.3,1.1-0.5,0.6-1.1C323.4,322.6,323,323.3,323.4,323.9z"/>
	<path class="st0" d="M411.2,275.7c0.2,0.2,0.4-0.1,0.6,0.2c0.3-0.2,0.3-0.6,0-1C411.2,275.1,411.6,275.5,411.2,275.7z"/>
	<path class="st0" d="M475,237.8c0.2,0.4-0.4,0.5,0,1c0.5,0,1.2,0.1,1.4-0.5C476.1,237.6,475.6,237.5,475,237.8z"/>
	<path class="st0" d="M245.2,359.3c-1.1,0.4-0.7,1.5,0.1,1.6C245.9,360.6,246,359.6,245.2,359.3z"/>
	<path class="st0" d="M338.8,310.1c-0.2-0.5-0.4-0.7-0.7-0.9c-0.5,0.3-0.6,0.7-0.4,1.2C338.1,310.4,338.4,310.4,338.8,310.1z"/>
	<path class="st0" d="M437.4,240.6c0.3,0.4,0.7,0.2,1.2-0.1c-0.1-0.3-0.3-0.5-0.4-0.8C437.5,239.9,437.7,240.4,437.4,240.6z"/>
	<path class="st0" d="M463.5,227.2c0.3-0.1,0.5-0.3,0.8-0.4c-0.1-0.3-0.3-0.5-0.4-0.8C463.2,226.3,463,226.7,463.5,227.2z"/>
	<path class="st0" d="M488.5,206.4c0.1,0.3,0.4,0.2,0.5,0.5c0.1-0.1,0.3-0.1,0.4-0.2c-0.1-0.2-0.2-0.4-0.3-0.6
		C488.9,206.2,488.7,206.3,488.5,206.4z"/>
	<path class="st0" d="M435.7,233.7c-0.4,0.2-0.2,0.7,0.1,1.2c0.4-0.1,0.4-0.4,0.7-0.6C436.3,233.7,435.9,234.1,435.7,233.7z"/>
	<path class="st0" d="M383.6,259.9c1.4,0.2,2.8-1.4,2.4-2.8C384.5,257.3,383.7,258.8,383.6,259.9z"/>
	<path class="st0" d="M434.2,229.9c0.2,0.3,0,0.5,0.2,0.9c1.3,0.3,2.7-1.2,3.3-2C437.1,227.5,434.8,229.3,434.2,229.9z"/>
	<path class="st0" d="M470.4,204.9c-2.5,0.8-0.7,4.3,1,4.1C472.6,207.9,472,205.4,470.4,204.9z"/>
	<path class="st0" d="M337.4,273c-0.5,0.2-0.8,0.5-0.5,1C337.5,273.8,337.7,273.5,337.4,273z"/>
	<path class="st0" d="M444.6,210.4c-1.4,0.9-1.2,3.1,0.2,3.6C446,213.3,445.8,211.4,444.6,210.4z"/>
	<path class="st0" d="M422.9,216.9c-0.1,1.1-0.7,2-0.1,3c0.5,0.4,1.1,0.3,1.8-0.2c-0.1-3.5,2.8-7.6-0.2-10.9
		C421.5,210.6,423.1,214,422.9,216.9z"/>
	<path class="st0" d="M233.9,317.3c0.2,0.2,0.4-0.1,0.6,0.2c0.2-0.1,0-0.4-0.1-0.7C234,316.9,234.1,317.2,233.9,317.3z"/>
	<path class="st0" d="M475.7,188.6c-0.7-1.2-1.9-1-3.3-0.2c-2.8,0.4-5.3,0-8.3,1c2,1.4,4.8,0.1,7.2-0.2
		C472.8,189.1,474.7,190,475.7,188.6z"/>
	<path class="st0" d="M435.6,206c1.3,1.4,3.5-0.8,3.2-2.2C437.3,202.3,435.3,204.2,435.6,206z"/>
	<path class="st0" d="M478.8,182.3c1.1,1.6,3.8-0.9,3.5-2.1C481.1,179.3,479.1,181.1,478.8,182.3z"/>
	<path class="st0" d="M287.9,283.5c0.2,0.5,0.4,0.7,0.7,0.9c0.8-0.3,1.1-0.8,0.6-1.6C288.8,282.7,288,283.1,287.9,283.5z"/>
	<path class="st0" d="M426.5,208.8c0,0.2,0,0.4,0.1,0.7c0.2,0.1,0.5,0,0.9-0.2C427.3,208.8,427,208.5,426.5,208.8z"/>
	<path class="st0" d="M439.1,200.7c-1,0.4-1.1,1.2-0.9,2c0.3,0,0.6,0.2,0.8,0.6c0.3-0.5,0.9-1,0.8-1.7
		C439.7,200.9,439.3,201.2,439.1,200.7z"/>
	<path class="st0" d="M386.5,230.4c-0.6-0.9-1.5-0.7-2.4-0.4C384.7,230.7,385.4,231.2,386.5,230.4z"/>
	<path class="st0" d="M452.4,186.6c-1.1,0.6-0.8,1.5,0,2.2c0.8-0.3,0.7-0.9,0.7-1.4C452.9,186.9,452.5,187.2,452.4,186.6z"/>
	<path class="st0" d="M440.6,193.8c0.2-0.1,0.4-0.2,0.6-0.3c-0.1-0.3-0.3-0.5-0.4-0.8C440.2,193,440.3,193.4,440.6,193.8z"/>
	<path class="st0" d="M415.2,201c-2.3,1-0.9,4.6,0.3,5.7C416.9,205.3,416.6,202.7,415.2,201z"/>
	<path class="st0" d="M450.4,186.9c-0.5,0.2-0.7,0.4-0.9,0.7c0.3,0.4,0.7,0.1,1,0.5c0.1-0.2,0.2-0.4,0.5-0.5
		C450.8,187.2,450.5,187.3,450.4,186.9z"/>
	<path class="st0" d="M444.9,189.1c-0.9-1.1-2.3-0.5-3.3-0.2c-5.2,1.4-10.6,1.1-15.9,1.8c0.2-1.4,1.9-2.4,1.8-3.9
		c-1.3,2.4-4.5,4.3-4.6,7.1c1-0.6,1.7-1.4,2-2.3c4.1,1.1,9.6-0.6,14.8-1C441.7,190.4,444.1,191.2,444.9,189.1z"/>
	<path class="st0" d="M474.1,173.1c-1.7-1.2-4.7,1-5.1,2.7C471,176.6,473.5,174.6,474.1,173.1z"/>
	<path class="st0" d="M460.5,176.1c0,0.2,0,0.4,0.1,0.7c0.4,0.1,1-0.2,1.1-0.6C461.5,175.9,461,176,460.5,176.1z"/>
	<path class="st0" d="M368,224.1c0.9-0.7,1.9-1.4,1.3-2.6C367.8,222,367.5,223,368,224.1z"/>
	<path class="st0" d="M437.5,185.2c0.5,0.8,2.5,0.1,2.2-0.9C438.9,183.2,437.3,184.1,437.5,185.2z"/>
	<path class="st0" d="M462.8,169.3c-0.5,0.2-0.5,0.6-0.2,1.1c0.4-0.1,0.4-0.4,0.7-0.6C463.1,169.7,462.9,169.6,462.8,169.3z"/>
	<path class="st0" d="M310.7,250.9c-0.1-0.3-0.3-0.5-0.4-0.8c-0.6,0.2-0.8,0.6-0.4,1.2C310.2,251.2,310.5,251,310.7,250.9z"/>
	<path class="st0" d="M379.9,212.6c0.9,1.5,2.9-0.9,1.1-1.6C380.2,211.1,380,211.9,379.9,212.6z"/>
	<path class="st0" d="M457.5,166.3c-1.3,1.2-0.7,4.5,0.7,5.5C459.5,170.5,459,167.4,457.5,166.3z"/>
	<path class="st0" d="M389.8,206.2c0.3-0.3,0.2-0.5-0.1-0.7c-0.1,0.1-0.3,0.1-0.4,0.2C389.4,206.1,389.7,205.9,389.8,206.2z"/>
	<path class="st0" d="M364.3,214.4c-1.6,0.8-1.9,2.3-0.8,3.1C365,217.4,365.7,215.3,364.3,214.4z"/>
	<path class="st0" d="M383.5,202.8c0.1,0.6,0.5,0.4,0.7,0.9c0.8-0.3,1.1-0.8,0.6-1.6C384.4,201.9,383.6,202.4,383.5,202.8z"/>
	<path class="st0" d="M454.4,165c-0.5,0.2-0.4,0.6-0.7,0.9c0.4,0.5,1.3,0.3,1.5-0.3C455,165,454.6,165.4,454.4,165z"/>
	<path class="st0" d="M400.6,194.3c-0.2-0.1-0.4-0.2-0.5-0.5c-0.5,0.3-1,0.5-1.5,0.8C399.1,195,400.2,195.3,400.6,194.3z"/>
	<path class="st0" d="M458.8,159.6c0.4,1.4,1.8,0.3,1.4-0.5C459.8,158.9,459.3,159.3,458.8,159.6z"/>
	<path class="st0" d="M385.1,193.9c-0.6-0.2-0.6,0.3-0.9,0.7C384.6,194.9,385.6,194.6,385.1,193.9z"/>
	<path class="st0" d="M445.5,161.2c-0.5-0.3-1.2,0.7-0.8,1.2C445.3,162.5,445.4,161.6,445.5,161.2z"/>
	<path class="st0" d="M345.3,201.8c1.7,0.3,3.9,1.4,5.6,0C349.3,200.8,347.3,201.5,345.3,201.8z"/>
	<path class="st0" d="M148.8,307.6c0.9,0.8,2.5,0.3,3.7-0.5c0,0.1,0.1,0.2,0.1,0.3c0.3-0.1,0.5-0.2,0.8-0.3
		c-0.1-0.2-0.2-0.4-0.3-0.5c1.2-1,1.9-2.3,1.2-3.2C152.6,301.2,149,306.1,148.8,307.6z"/>
	<path class="st0" d="M380.6,181.3c1.2-0.3,2.3-1.8,1.8-3.1C380.8,178.9,380.5,180.1,380.6,181.3z"/>
	<path class="st0" d="M433.9,151.5c-1.1,0.4-1.2,1-0.7,1.9C434.2,153.5,434.8,152.4,433.9,151.5z"/>
	<path class="st0" d="M166.8,289.8c-0.2,0.1-0.3-0.2-0.4-0.3c-3.1,0.3-5.2,3.6-6.9,5.4c-0.7,0.7-4.7,2.4-3.5,4c0.7,1,7-1.8,8.8-3.2
		C166.8,294.2,167.4,291.9,166.8,289.8z"/>
	<path class="st0" d="M427.8,147c0.6-0.1,0.4-0.5,0.9-0.7c-0.2-0.3-0.3-0.6-0.5-1c-0.2,0.2-0.4,0.1-0.5,0
		C426.9,145.7,427.1,146.8,427.8,147z"/>
	<path class="st0" d="M450.8,130.3c-0.6-0.2-1.3,0.5-1.4,1c0.2,0.4,0.4,0.3,0.6,0.7c0.4-0.2,0.8-0.4,1.1-0.6
		C450.8,131,451.2,130.8,450.8,130.3z"/>
	<path class="st0" d="M374.1,170.9c-0.7-0.9-1.2,0.3-2.1,0.6C372.6,171.3,373.8,171.7,374.1,170.9z"/>
	<path class="st0" d="M431.9,129.2c1.1-0.6,0.3-2.1-0.5-2.4C430.7,127.3,431.2,128.7,431.9,129.2z"/>
	<path class="st0" d="M442.5,123.5c-1.2-1.4-5.3,1.1-6.7,2.6C437.6,127.2,439.9,123.9,442.5,123.5z"/>
	<path class="st0" d="M397.2,138.3c-1.4,0.2-1.7,1.3-2.3,2.2C396.3,145.2,400.4,139.5,397.2,138.3z"/>
	<path class="st0" d="M382.7,144.9c-2.7,0.3-3.6,2.5-2.3,4.9c1.1,0.4,1.7-0.5,3.1-1.1C383.2,147.3,384.1,146,382.7,144.9z"/>
	<path class="st0" d="M346.5,167.7c1,0.3,2-0.6,1.3-1.7C346.8,165.6,345.6,166.4,346.5,167.7z"/>
	<path class="st0" d="M352.3,163.9c1.9,0.5,3.9-2.2,2.1-4.3C352.1,160,351.9,162.1,352.3,163.9z"/>
	<path class="st0" d="M424,123.9c0.2-0.5-1.3-0.5-0.7,0.1C423.4,124,423.9,124.1,424,123.9z"/>
	<path class="st0" d="M406.5,126.3c0.1,0.7,0.2,0.8,0.8,1c0.1-0.2,0.2-0.4,0.5-0.5C407.5,126.2,407.1,125.8,406.5,126.3z"/>
	<path class="st0" d="M329.6,166c0.4,1.2,2.1,0.7,2.6-0.2C331.5,164.5,330.5,165.2,329.6,166z"/>
	<path class="st0" d="M380.8,129.3c0.7-0.2,0.5-0.7,0.4-1.2C380.3,127.8,379.9,129.1,380.8,129.3z"/>
	<path class="st0" d="M376.1,129.6c0.5,1.2,1.5,0.9,2.2,0C378,128.3,376.5,128.8,376.1,129.6z"/>
	<path class="st0" d="M388.3,112.9c-0.3,0-0.6,0-0.9-0.3c-2.9,1.8-3.4,5.1-2,7.7C387.9,118.5,389.9,116.3,388.3,112.9z"/>
	<path class="st0" d="M392.1,108.9c-2.7,0.9-2.7,3.8-1.5,6.4C393.5,115.7,395.2,110.3,392.1,108.9z"/>
	<path class="st0" d="M367,116.6c-3,0.5-6.3,6.4-4.3,7.9C365.4,123,369.2,119.6,367,116.6z"/>
	<path class="st0" d="M402.9,99c1.2-0.4,2.7,0.7,3.7-0.8C405.8,96.8,402.5,96.9,402.9,99z"/>
	<path class="st0" d="M384.9,108.1c3.3-0.8,4.6-3.9,7.4-4.4c0-0.5,0.7-0.7,0.3-1.4c-2.5,0.5-3.5,3.4-6.6,3.7
		C387.4,106.3,385.4,107.5,384.9,108.1z"/>
	<path class="st0" d="M377.9,111.1c0.3-0.2,0.6-0.3,1-0.5C378.5,109.3,377,110.1,377.9,111.1z"/>
	<path class="st0" d="M383.5,106.9c-0.4-0.3-0.9,0-1.5,0.3C382.4,107.4,383,107.1,383.5,106.9z"/>
	<path class="st0" d="M381.7,107.6c0.1-0.8-1.6,0.1-2.3,0.2C379.9,108.6,381,107.5,381.7,107.6z"/>
	<path class="st0" d="M377,106.2c-1.4,0.6-2.2,1.3-1.3,2.6C377.5,109,378.2,107.2,377,106.2z"/>
	<path class="st0" d="M336.1,125.5c-1.9-0.5-3.8,1.8-2.1,3.8C335.7,129.4,337.4,127.3,336.1,125.5z"/>
	<path class="st0" d="M377.7,103.9c-0.1-0.7-0.8,0-1.2,0.1C376.9,104.2,377.3,103.9,377.7,103.9z"/>
	<path class="st0" d="M390.5,94.6c-1.8,1.4-3.3,2.8-4.5,4.4C387.2,98,390.8,96.5,390.5,94.6z"/>
	<path class="st0" d="M334.3,118.8c-1-1.3-3.1-0.1-4.4,0.9c0.2,1,1.7,1.9,1.8,3.4c1,0.2,1.6-0.2,2.7-0.9
		C333.9,121.1,334.8,119.5,334.3,118.8z"/>
	<path class="st0" d="M336.8,119.9c-0.4-1.2-1.9-0.7-1.9,0C335.2,121,336.5,120.7,336.8,119.9z"/>
	<path class="st0" d="M347,104.8c-0.3-1.1-1.1-0.7-1.5-0.2C345.8,105.7,346.5,105.4,347,104.8z"/>
	<path class="st0" d="M378,87.3c-0.2-0.1-0.4-0.2-0.5-0.5c-0.6,0.2-0.8,0.6-0.4,1.2C377.8,87.9,377.5,87.5,378,87.3z"/>
	<path class="st0" d="M316.3,117.6c-0.7,0.1-1.1,0.3-1.2,0.9C315.6,119.1,316.8,118.6,316.3,117.6z"/>
	<path class="st0" d="M91.7,235.1c-0.1,0.4,0.2,1,0.6,1.1c0.4-0.1,0.4-0.4,0.7-0.6C92.6,235,92.2,234.9,91.7,235.1z"/>
	<path class="st0" d="M368.5,88.3c-0.9-0.2-0.7,0.9-1.3,1.2C367.6,89.7,368.9,88.8,368.5,88.3z"/>
	<path class="st0" d="M66.1,247c0.1,0.6,0,1,0.5,1.4c1-0.2,0.9-0.7,1.2-1.4C67.3,246.4,66.8,246.7,66.1,247z"/>
	<path class="st0" d="M292.1,103.3c-2.1-0.8-2.7,1.6-3.9,2.8c-2.7,2.7-6.6,5-9.6,7.3c0.2,0.4,0,0.7,0.4,1.2c3.3-1.2,6.1-3.3,8.4-5.7
		c0.3-0.3,0.6-0.7,0.8-1.1c0,0.1,0.1,0.2,0.1,0.3c0.5-0.2,0.7,0.1,1.3-0.3c0-0.3-0.1-0.7-0.2-1C291,105.9,293,105,292.1,103.3z"/>
	<path class="st0" d="M301.9,98.5c-0.5-0.6-0.5,0.2-1.2,0.4C301,99.4,301.8,98.9,301.9,98.5z"/>
	<path class="st0" d="M292.6,99.6c0.5,0.3,1.4-0.6,2-0.8C294.2,98,292.8,99.3,292.6,99.6z"/>
	<path class="st0" d="M298.5,96.2c-0.5-0.6-0.6,0.3-1.4,0.5C297.4,97.1,298,96.3,298.5,96.2z"/>
	<path class="st0" d="M359.3,61c-0.8-0.7-2-0.5-2.9-0.9c-1,0.7-0.9,1.6-1.1,2.5C356.4,64,358.5,62,359.3,61z"/>
	<path class="st0" d="M291.3,95.4c-1.2-1.2-3.4,1.6-3.7,2.7C288.9,97.2,290.8,96.5,291.3,95.4z"/>
	<path class="st0" d="M334.8,70.3c-2.2-1.6-4.8,0.6-5.3,2.8c0.2,0.4,0.5,0.9,0.7,1.3C332.5,75,335.2,72.4,334.8,70.3z"/>
	<path class="st0" d="M328.1,70.1c-2-1.8-5.1,1.4-3.9,3.8C326.6,74.1,328.2,72.5,328.1,70.1z"/>
	<path class="st0" d="M314.7,72.4c0.1,0.2,0.2,0.4,0.3,0.6C315.7,73,315.1,71.8,314.7,72.4z"/>
	<path class="st0" d="M308.4,61.2c-1.8-3.2-8.8,1.9-7.2,4.8C303.7,67.4,310,64,308.4,61.2z"/>
	<path class="st0" d="M265.6,85.1c1.2,2.3,3.3-1,1.1-1.6C265.8,83.9,265.6,84.5,265.6,85.1z"/>
	<path class="st0" d="M125.8,156.7c0.1,0.3,0.4,0.2,0.5,0.5c0.1-0.1,0.3-0.1,0.4-0.2c-0.1-0.2-0.2-0.4-0.3-0.6
		C126.2,156.5,126,156.6,125.8,156.7z"/>
	<path class="st0" d="M318.9,51.9c-0.6-1.5-2.2-0.1-2.3,0.7C317,54,319.2,52.9,318.9,51.9z"/>
	<path class="st0" d="M194.8,112.5c-0.2,1.3-0.4,2.6-0.3,4.1c1.3-1,0.3-3.9,0.9-5.6C194.5,110.8,194.3,111.8,194.8,112.5z"/>
	<path class="st0" d="M246.6,86C247.8,86,247.7,84.6,246.6,86L246.6,86z"/>
	<path class="st0" d="M184,114.4c0.1,0.9-0.2,2.4,0.7,3.1c0.1-1.5-0.5-4-0.8-5.2C182.8,113,183.8,113.3,184,114.4z"/>
	<path class="st0" d="M189.2,113.1c-0.1,0.1-0.2,0-0.3-0.1c-0.1,0.1-0.3,0.1-0.4,0.2c0.1,0.1,0,0.2-0.1,0.3c0.1,0.1,0.1,0.3,0.2,0.4
		c0.1-0.1,0.2,0,0.3,0.1c0.1-0.1,0.3-0.1,0.4-0.2c-0.1-0.1,0-0.2,0.1-0.3C189.4,113.3,189.3,113.2,189.2,113.1z"/>
	<path class="st0" d="M133.2,138.4c-1.9,1.3,1.6,2.4,0.6,0.2C133.6,138.6,133.3,138.6,133.2,138.4z"/>
	<path class="st0" d="M215.6,95.8c-1-3.3-3.7-1.5-3.9,0.4C212.5,97.7,214.8,97.5,215.6,95.8z"/>
	<path class="st0" d="M49.9,171.2c0.1,1.8,0.6,1.2,2.1,1.6c2,0.5,5,3,7.5,2.1c-0.7-1.7-2.9-2-4.5-2.5
		C53.4,171.9,51.6,170.5,49.9,171.2z"/>
	<path class="st0" d="M88.4,159.3c0.8,0.2,1.4-0.8,0.9-1.5c-0.2,0-0.4,0-0.6-0.2C88.3,158.1,88,158.6,88.4,159.3z"/>
	<path class="st0" d="M172.5,110.5c0.4-1.3-0.8-3.8-1.1-4.8C170.1,106.8,172.3,108.9,172.5,110.5z"/>
	<path class="st0" d="M263.1,46.5c-0.7-0.1-1.1,0.2-1.5,0.8C262.1,49.1,264,47.6,263.1,46.5z"/>
	<path class="st0" d="M265.8,44.9c0.1,0.1,0.1,0.2,0.2,0.3c0.3,0,0.6-0.2,0.9-0.6c-0.3-0.4-0.7-0.8-1-0.8c-0.2,0.2-0.3,0.4-0.3,0.6
		v-0.1C262.5,44.8,266.2,47.1,265.8,44.9z"/>
	<path class="st0" d="M234.6,46c0.8,1.6,1.9,1.7,3.9,0.9c1-0.4,4.5-3.7,3.7-5.4C240.8,38.2,232.5,42.2,234.6,46z"/>
	<path class="st0" d="M201.4,56.6c0.6-0.3,0.8-0.7,0.5-1.3c-0.3-0.1-0.8,0.1-1.2,0.4C200.9,56.2,201.2,56.4,201.4,56.6z"/>
	<path class="st0" d="M46.6,124.6c-0.1,0.1-0.3,0.1-0.4,0.2c0.1,0.2,0.2,0.4,0.3,0.6c0.2-0.1,0.4-0.2,0.6-0.3
		C47,124.8,46.8,124.9,46.6,124.6z"/>
	<path class="st0" d="M149.1,65.6c0.6-0.3,0.8-0.7,0.5-1.3c-0.4,0.1-0.6-0.4-1.2,0.1C148.4,64.8,148.8,65.5,149.1,65.6z"/>
	<path class="st0" d="M186.4,104.1c0.3,2.2,0.3,4.2,0.7,6.4C187.7,109.4,187.8,105.2,186.4,104.1z"/>
	<path class="st0" d="M354.3,234.8c-6.3-2.6-12.5-5.2-18.8-7.8c-0.1-0.1-0.1-0.3-0.2-0.5c-0.3,0-0.7-0.1-1,0
		c-5.1-2.1-10.1-4.2-15.2-6.3c-0.1-3-3.1-2.4-5.1-2.1c-0.2-0.1-0.3-0.1-0.5-0.2c-0.2-0.6-0.2-0.9-0.7-1.3c-0.6,0-1,0.2-1.4,0.4
		c-1.5-0.6-3-1.3-4.5-1.9c3.1-1.1,6.1-2.5,9-3.3c2.1-0.6,4.6-1.6,6.7-2.8c0.3,0,0.7,0,1.1-0.2c0.1-0.1,0.2-0.2,0.2-0.3
		c0.3,0.2,0.5,0.7,1,0.4c3-3.7,11.1-3.4,15.3-6.7c1.4-1.1,2.9-3.6,2.1-5.7c-0.9,0-1.3,1.2-2,1.8c-5.3-0.1-9.3,4.3-14.1,5.8
		c-0.3,0-0.4-0.9-1.1-0.6c-0.9,0.6,0.4,0.4,0.5,1c-0.7,0.4-1.3,0.6-1.9,0.7c-0.3-0.5-0.6-1-0.9-1.4c-1.6-0.3-3.1-0.7-4.4-1.5
		c4.8-2.1,9.4-5.3,13.9-6.5c3.2-2.3,7.3-1.3,10.2-3.2c0.7-0.5,1-1.3,2.2-1.4c2.4-0.3,4.9,0.6,7.3,0c1.4-0.3,2.4-1.4,3.7-0.8
		c4.4-2.4,9.3-2.3,13.5-2.3c4-0.7,8.4-2.3,11.7-0.6c2.2,0,4.7-0.8,7.1-1.3c0.7-0.6,0.5-1.4,1.4-2c-0.8-2.5-2.6-2-3.9-2.8
		c-7.1,0.8-14.5,2.7-21.3,2.7c-1.1,0.7-1.9,0.8-2.7,0.5c-0.4,0.2-0.8,0.4-1.1,0.6c-2.5,0.2-4.8,0.6-7.3,1c-3,0.4-5.7-0.4-8.7,0.2
		c-0.9,0.2-1.7,0.8-2.7,0.9c-3.5,0.6-7.3-0.4-10.8,0.4c1-0.3,2.8-1.3,1.2-3.3c-1.4-0.3-3.3,0.6-4.5-0.3c0.1-0.2,0-0.5-0.2-0.9
		c2.1-2.3,5.7-0.2,8.4,0.2c2.9,0.4,5.8,1.4,5.6-2c-1.6-1.8-3.9-1.1-5.8-1.8c-5.8,0.9-11.8-1.7-17.6-2.7c0-0.2,0-0.4-0.1-0.6
		c1-1.2,1.4-2.5,1.4-3.9c4-0.7,7.1,1.5,11.3,0.1c1.2-2.7-2.4-2.6-3.9-2.8c-2.7,1.1-5.1,1.1-7.5,0.9c-0.5-3.2-2.3-6.6-3.1-9.8
		c0.9-0.2,1.9-0.4,2.8-0.4c5.2,2.1,9.4-4.4,14.4-5.5c0.8-1.2,2.3-2.1,3.8-2c-0.5,1.4-2.6,1.5-3,3.1c6.1-3.8,12.1-5,18.5-6.2
		c2.2-0.4,4.3-0.4,6.3-0.6c2.2-0.2,4.9-2.6,7.4-3.2c3.4-0.8,8.5,0.6,10.4-3.8c-0.2-1-0.9-1.1-1.4-2.2c-3.7-0.6-7.1,2.5-10.7,3.3
		c-0.7,0.2-1.3-0.3-2-0.1c-0.9,0.2-1.7,0.8-2.7,0.9c-2.3,0.3-4.6,1-6.9,0.3c0.5-1.7,5.5-2.1,5.1-4.7c-2.2-0.5-4.6,2.8-6.7,4.3
		c-0.6,0.4-1.4,0.9-2.2,1.4c-2.3,1.4-4.4,3.4-6.3,2.9c-1.6,0.7-3.4,0.9-5.3,1.1c-0.2-0.2-0.6-0.4-0.8-0.5c-0.4,0.2-0.4,0.4-0.5,0.6
		c-1.8,0.1-3.6,0.2-5.2,0.4c-2.7,0.4-5.1,1.2-7.3-0.8c-1.5-0.2-2.5,0.3-4.4,0.9c-3.8,1.2-7.6,1.4-11.4,1.8c-0.8-1-1.6-1.9-2.5-2.8
		c-1,0-1.8-0.3-2.5-0.8c1.2-0.9,2.2-1.9,2-3.2c-0.5,0.2-1,0.4-1.4,0.8c0-0.2-0.1-0.4-0.3-0.7c-0.2,0.1-0.4,0-0.6,0
		c-0.8,0.9-0.3,1.4,0.2,1.4c-0.3,0.3-0.5,0.6-0.7,0.9c-0.1-0.1-0.2-0.2-0.3-0.4c-0.2-0.7-0.4-1.4-0.7-2.1c0.6-0.1,1.1-0.3,1.7-0.5
		c0.2-0.6,0.2-1.4-0.5-1.9h0.1c1.9,0.7,6.2-0.6,9.3-1.1c1.5-0.2,3.6-0.1,3.6-2.4c1.7-1.2,3.7-2.4,6.3-3.3c2.7-0.9,5.8-1,7.4-1.7
		c1.2-0.6,2.8-1.8,2.3-3c-0.8-2.1-3.2,0.2-4.8-0.4c-2.8,1.7-5.2,2.7-8.6,4.1c-3.5,1.5-8.3,1.8-12.5,3.2c-0.4,0.1-0.7,0.3-1,0.4
		c0.2-0.2,0.4-0.4,0.6-0.6c0.2-1.6,1.2-3.6,2.5-4.3c-0.3-0.5-0.1-1,0.1-1.5c1.1-1,1.8-2.6,3.2-4.3c2.5-1,5-1.9,7.5-3.1
		c0.6-0.3,1.2-0.9,1.8-1.2c3.3-1.3,7.5-0.7,9.6-4.1c-0.2-0.9-0.2-1.5-0.9-2.2c-5.4,0.2-9.3,3.9-14.6,6.1c-0.1,0-0.2,0.1-0.3,0.1
		c0.2-0.7,0.1-1.5-0.8-2.2c-2.7-0.3-3.2,4-4.8,4.4c-0.6-2.9-2.9-3.5-5.2-5.7c-0.6,0.5-1.9,0.1-2.8-1.5c-1,0.3-1.6-0.6-2.1-1.3
		c-2.1-0.4-4.3-0.6-6-2.4c-1.5-1.5-2.3-4.4-4.4-3.6c-1.2,1.3,1.7,3,2.1,3.9c-0.8,0.1-1.5,0.2-2.3,0.4c-0.7,0.5-0.5,1-1.3,1.5
		c-0.6-0.2-1.2,0.4-1.8,0.2c-1.9,2.1-4.3,3.3-5.8,5.3c-0.6-0.2-1.2-0.4-1.7-0.8c0-0.8,0.4-1.1,0-1.7c-1.2-0.7-2.5-0.9-2.3-2.6
		c1.2-1.1,3-2.4,2.9-3.5c-0.3,0.2-0.7,0.4-1,0.8c-0.8,0.3-1.4,1.2-2.6,1.6c0.3,0,0.8-0.2,1.3-0.4c-0.3,0.4-0.7,0.8-0.9,1.3
		c-1.2-0.2-1.8-0.8-2.4-1.3c0.1,0,0.3,0,0.5,0c0-0.7-0.2-0.7-0.7-1.1c-0.4,0.3-0.4,0.7-0.2,0.9c-0.4-0.2-0.8-0.3-1.5,0l0,0
		c4.8-4.1,9.6-8.2,15-11.5c2-1.2,1.8-5.4-1.5-4.1c-1.3,0.5-3.3,3-4.1,3.9c-0.9,1-2.2,1.8-3.4,2.8c-1,0.9-2,2-3.1,2.9
		c-1.1,0.9-2.4,1.6-3.7,2.4c-0.1,0-0.2,0-0.3,0c0,0.1-0.1,0.2-0.1,0.2c-0.5,0.3-1,0.5-1.4,0.8c0.1-0.2,0.1-0.5-0.1-0.6
		c-0.4-0.6-0.8,0.7-1.1,0.1c-0.4-0.7-0.8-1.3-1-1.9c0.8-0.7,1.7-1.5,2.6-2.1c2-1.4,4.4-1.7,5.7-3.5c0.8,0,1.4,0.4,2.3-0.3
		c0.6-0.4,0.6-1.1,0.2-1.8c1.3-0.1,1.7-1.4,2.6-2.1c2.2-1.8,5.5-3.1,8.4-4.5c1.9-0.9,5.7-3.2,4.2-5.4c-1.5-2.2-4.3,1-6.7,1.1
		c-3.7,4.5-9.3,6.7-15,10.9c-0.7,0.3-0.1-0.3-0.6-1.1c-1.4-0.1-2.6,0.7-2.9,1.8c0.5,0.5,1.3,0.2,1.9,0.4c-1.2,1.1-2.4,2.3-3.7,3.4
		c-0.1-0.4-0.2-0.7-0.2-1.1c-0.1-0.1-0.3-0.3-0.4-0.5c0.6-0.7,1.5-0.8,0.7-1.8c-0.3,0.4-0.6,0.9-1,1.5c-0.9-1.1-1.5-2.6-1.4-3.8
		c-0.6-0.1-0.9-0.5-1.2-0.9c-0.1-1.4-1-2.9-1.6-5c0.1-0.5,0.1-1-0.3-1.4c-0.1-0.4-0.1-0.8-0.1-1.2c-1-1.4-1.1-3.9-3.7-3.2
		c-1.3,1.4,0,3.4,0.6,4.9c-0.5,0.4-1.1,0.8-1.5,1.1c-1.9-0.1-3.5,0.9-6,1.4c0.1,0.8-1,1.6-2.9,1.4c-0.3,1-1.4,1-2.3,0.9
		c-1.4,1.3-2.7,2.7-4.7,3.3c-0.1-0.1-0.3-0.2-0.4-0.3c-1-2.9-2.7-5.7-5.6-8.3c-3.5-3.2-8.4-5.5-11.2-8.4c-1.7-1.8-2.1-4.2-4.5-4.6
		c-0.8,0.3-1.7,0.7-2.5,0.5c-2.9-5.5-7.1-10.5-9.7-16c0.2-0.7,0.1-1.4-0.1-1.9c-0.3-0.6-1-0.9-1.8-1c-0.6-0.8-1.3-1.3-2.1-1.1
		c-0.9,0.2-1.1,0.8-1.2,1.4c-2.5,1.1-4.3,4.4-2.2,7.1c1.5,1.3,3.8,0.4,5.5-1.2c1.8,2.2,2.5,4.5,4.1,6.4c3.9,4.6,5,8.3,7.7,13.2
		c0.6,2,1.7,3.3,2.1,5.4c2.7,1.8,3,4.5,5.1,6.2c1.5-1.8,1.2-4.2,0.1-6.3c-0.8-1.5-2.9-3-1.6-4.7c1.5,0.6,1.6,1.8,2.5,3
		c2.2,3.3,6,6.7,6.9,10.1c2.8,1.3,2,4.7,4.2,5.8c0.1,0,0.1,0,0.2,0.1c-0.8,0.6-1.6,1.3-2.6,1.9c-3.6,1.8-9,2.3-13.4,4.2
		c-3.7,1.5-6.2,3.5-8.1,6c-0.6,0.2-1.3,0.5-1.9,0.8c-1.1-0.7-2.2-1.4-3.4-1.6c-1.1-0.2-2,0.6-2.9-0.3c-3.5,0.3-7.1,1.3-10.8,1.4
		c-0.8,0-1.6-0.4-2.4-0.4c-5.8,0.2-12.4,1.8-17.4-2.8c-2.3-0.1-4.9-2.9-6.8-5.2c-3-3.6-6.3-5.9-10.3-6.1c-0.4,0-0.8-0.5-1.2-1
		c-1,0.5-5.8-0.9-6.7-1.5c-0.2-0.2,0-0.6-0.4-0.8c-0.3-0.1-0.8,0.2-1.1,0.1c-3.5-1.3-2.2-6.3-5-8.3c-1.3,2.3,2.5,4.9,2.3,7.3
		c-1.1,0.5-2.2,0.4-3.2,0.3c-3.3-1.9-6.8-3.2-10-5c0.8,0.1,1.5,0.1,1.9,0.1c2.1-0.5,2.9-1.2,2.7-2.9c-0.5-4.1-8.7-3-8.9,0.2
		c-1.6-1.2-2.4-2-3.9-2.3c-2.7,1.1-4.7-0.4-7.1-1.7c-3.2-1.7-7.8-2.9-10.6-5.5c-2-0.1-3.3-2.7-5-4.8c-0.6-0.7-1.1-1.4-1.6-2.1
		c-1.5-2.1-2.7-6.1-4.9-6.3c-1.2,2.3,3.4,4.3,3.2,6.1c-2.5-0.1-4.4-1.5-6.5-2.6c-0.9-0.5-1.4-1.3-2.2-1.8c-0.6-0.3-1.4-0.2-2-0.5
		c-3.1-2-5.4-6-9-6.7c-0.9,0.8-1.6,0.7-2.1,1.6c0.3,4.8,5.6,5.2,8.5,7.1c2.1,1.4,3.9,4.5,5.9,5.4c1.8,0.8,3.7,1.6,5.7,2.7
		c5.6,3.2,10.8,6.4,15.4,12c0.1-1.6-1.8-2.4-1.8-3.9c1.4,0.5,2.5,1.8,2.9,3.2c4.4,2.6,6.2,10.2,11.8,10c3.6,1.5,6.8,4.7,10.4,6
		c1.2,0.4,2.2,0,3.3,0.8c1.2,0.8,2,3.1,3.9,2.3c0.3-1.2-1.3-1.7-0.6-2.6c1.7,1.6,3.3,3.2,5,4.6c-0.3-0.1-0.6-0.2-0.7-0.4
		c-3,1.3-5.3,1.1-6.9,3.6c-1.3-0.8-0.4-5.1-3-5.7c-2.5,0.9-1.2,3-1.1,4.8c0.7,1.2,1.1,2.3,1.4,3.3c-2.6-1.7-5.5-2.9-8-4.1
		c-4.3-2.9-8.8-2.2-13.1-5.3c0-0.2,0-0.4-0.1-0.6c-0.4-0.2-0.7-0.2-1-0.2c-1.5-0.4-4.8-1.6-4.6,1.3c4.1,3.1,8.4,1.2,12.5,5
		c1.7,0.2,4.2,0.8,5.4,2.4c-2.1,1.7-4.1,1-6.2,1.3c-6.2-1.3-13.2-0.6-18.8-3.6c-2,0-4-1.4-6.1-0.3c-1.3,3.1,1.8,3.1,4.6,3.7
		c2.6,0.6,6.7-0.3,8,2.6c-0.3,0.2-0.5,0.5-0.5,0.7c-1.5,0.4-2.9-1.1-4.4-1.3c-1.3,0.8-1.4,1.6-1.1,2.3c-0.2,0.1-0.4,0.3-0.5,0.5
		c-2.8-1.2-5.9-1.7-8.5-3.2c-0.8-0.5-1.4-1.3-2.2-1.8c-2.6-1.5-5.4-1.8-8.1-3.1c-2.3-1.1-4.3-2.4-6.6-3.3c-0.3-0.3-0.6-0.6-0.9-1
		c-0.8,0.1-1.6-0.3-2.4-1.3c-6.4-2.3-12.7-6.5-19.1-9.7c-1.5,0.3-3-0.8-4.6,1.3c0.6,0.8,0.2,1.5,0.7,2.3c2.1,1.3,4.1,2.9,6.3,3.6
		c3.7-0.5,7.2,2.5,10.8,4.4c3.9,1.3,8.6,2.9,11.9,6.6c1.4-0.2,2.1,1.2,3.3,2c2.1,1.4,4.8,1.4,6.9,2.4c1.1,0.5,1.1,1.4,1.6,2.1
		c2.2,2.8,6.3,3.2,8.6,6.5c4.8,3.3,8.7,9.6,14,13.3c0.2,0.2,0.4,0.5,0.6,0.7c-0.1,0.7-0.6,1.1-1.2,1.2c0-0.1,0-0.2-0.1-0.4
		c-0.5,0-0.6,0.2-0.8,0.4c-0.4-0.1-0.8-0.2-1.1-0.5c0.3-1.1,0.4-2.1-0.6-3.2c-1,0.1-0.9,1.2-1.6,1.8c-1.9-1.3-3.9-0.5-5.8-2.9
		c0.3-0.5,1.5,0.1,0.8-0.7c-0.6-0.5-1,0.3-1.2,0.2c-4-2.9-6.3-8.4-11.3-10.1c-0.4-0.7-0.4-2.1-1.3-2.3c-1.5,1.8-0.9,4.7,0,6.1
		c2.8,4.5,10.6,6.9,12.2,11.4c0.5,0.6,1-0.5,1.5,0.1c1.7,2.1,4,4.2,6,5.6c2.9,2,5.6,5,8.7,7.2c-1.6,0.2-3,0.5-3,2.1
		c0,2.7,4.4,2.4,6.6,2c0.7-0.1,1.4-0.2,2.1-0.4c0.8,0.5,1.6,1,2.4,1.5c0,0,0,0.1-0.1,0.1c-1.5,0.6-1.5,1.8-0.8,2.8
		c-1.4-0.6-2.8-1.2-4.2-1.6c0.4,0,0.7-0.1,1.1-0.1c-0.6-0.5-2.4-1.2-3.6-0.9c-2.3-1.9-4.6-2.1-6.5-4c-0.1-0.4,0.5-0.8,0.7-1.2
		c-1-1-1-1.5-2.1-1.9c-0.7,0.2-0.7,0.6-1.3,1.2c-1.9-0.9-4.9-2.9-6,0.2c0.3,1.5,2,2.2,3.5,4.1c1.4,0.7,3.2,0.4,4.7,1
		c0.9,0.4,1.5,1.3,2.5,1.8c0.9,0.4,2.1,0.5,2.9,0.9c2.9,1.5,5.9,2.8,8.9,4.3c-0.2,0.4-0.2,0.9-0.2,1.3c-1.5-0.5-3.1-1.5-4.2,0.1
		c0.2,1.8,2.2,1.5,3.8,1.4c0.5,1,0.9,1.7,1.2,2.2c-33.9,2-67.9,2.2-101.8,0.5c-2.2-0.1-2.1,3.1,0,3.4c34.9,3.6,69.9,4.6,105,3.1
		c0.1,1.1,0.1,2.3-0.1,3.3c-0.5,0-1,0-1.5,0.1c-21.7-0.9-43.3-1.3-65-1c-0.4-1.1-2.2-1.6-3.7-0.9c0.1,0.7,0.7,0.9,1.4,1
		c-9.6,0.1-19.1,0.4-28.6,0.7c-2.2,0.1-2.2,3.4,0,3.4c31.8-1.2,63.7-1.1,95.5,0.3c-0.3,2.5-0.4,5.1-0.7,7.6
		c-2.9,0.9-7.5-1.2-10.3,1.3c-0.6,0.5-0.9,1.5-0.6,2.4c-0.4,0.1-0.8,0.1-1.1,0.2c-5.6,1.2-10.9,0.5-15.5,3.4c-0.2,1,0.1,1.5,0.5,2.3
		c0.8,0.4,1.6,0.5,2.4,0.5c-0.8,0.2-1.6,0.4-2.4,0.6c0-0.1-0.1-0.3-0.1-0.4c-1.5-0.1-3.6,0.2-4,1.4c-3.9,1-7.7,2.1-11.5,3.2
		c-2.1,0.6-1.2,3.9,0.9,3.2c4.1-1.2,8.2-2.4,12.4-3.5c0,0.1,0,0.1,0.1,0.2c1.3,0,2,0,2.7-0.8c0,0,0-0.1-0.1-0.1
		c8.6-2.1,17.3-3.9,25.9-5.3c0.4,1.1,0.7,2.3,1,3.5c-3,1.2-6,2.7-8.7,3.3c-3.5,0.8-6.1,1.4-9.4,1.6c-1.1,1.4-4.3,0.8-3.8,3.1
		c0.3,1.2,2.3,1.3,3.6,1.1c1.7-0.3,4.3-2.1,7.1-2.8c2.6-0.7,5-0.8,7.1-0.9c1.3,1.8,3,0.5,4.3-0.1c0.4-0.2,0.9-0.4,1.4-0.6
		c0.9,2,2.2,3.5,4.5,4.1c0.3,1,0.9,1.2,1.3,2c0.7,0.3,1.5,0.5,2.1,0.8c-3.5,1.9-6.8,4-10.6,5.2c-2,0.6-3,0.8-4.1,1.8
		c-0.6,2.9-3,3.6-5.5,4.8c-3.2,1.6-6.9,4.6-10.6,5.4c-1.3,1.6-4.1,1.1-6.8,1.3c-0.9,0.1-1.8,0.1-2.6,0.1c-2.6,0-6.5-1.4-8,0.3
		c1.2,2.3,5.4-0.2,6.8,0.9c-1.6,1.9-3.8,2.7-5.8,3.8c-0.9,0.5-1.9,0.4-2.7,0.8c-0.6,0.3-0.9,1-1.6,1.3c-3.4,1.4-8,0.9-10.7,3.5
		c0.2,1.2-0.4,1.7,0.1,2.6c4.1,2.6,7.5-1.6,10.7-2.8c2.3-0.9,5.9-0.5,7.8-1.6c1.7-0.9,3.4-2.1,5.5-3.1c5.9-2.7,11.5-5.1,18.7-5.6
		c-1.2-1-3,0-4.2-0.8c1.2-0.9,3-1,4.3-0.5c4.7-2,11.9,0.9,15-3.8c3.2-1.9,7.2-2.7,10.3-4.6c1.5,1.5,3.7,2.7,5,4.2
		c0.4,0.9,0.6,1.8,0.6,2.6c-1.3,0.7-2.5,1.4-3.7,2c-5.3,1.9-7.2,6.5-13.2,7.9c-1.2,1-4.1,3-1.6,4.5c4.9-1.5,5.9-6.1,11.3-7.3
		c1.2-1.3,3.1-3,5.1-3c0,0.5,0,1-0.1,1.4c-0.4,0.4-0.8,0.9-1.2,1.3c0,0.3,0,0.7,0,1.1c-0.5,0.6-0.9,1.3-1.3,2
		c-4.7,4.2-8.1,10.4-13.8,13.2c-1.1,1.7-3.5,2.4-3.8,4.8c1.7,2.9,3.5,0.4,5.7-1.6c2-1.8,3.7-5.7,6.8-5c0,0.4,0.1,0.7,0.3,0.8
		c-0.5,1.4-2.6,1.7-3.6,2.8c-0.2,2.6,1.8,2.4,2.9,2c-3.3,1.4-5.8,4.4-9.1,5.9c-0.9,0.4-1.9,0.4-2.7,0.8c-2.8,1.3-4.6,3.4-7.2,4.8
		c-2.2,1.2-4.4,2.1-6.5,3.4c-0.4,0.1-0.9,0.1-1.3,0.2c-0.4,0.7-1.2,1.1-2.5,1.2c-5.6,3.9-12.7,6.6-19,9.9c-0.7,1.4-2.4,2-1.6,4.5
		c1-0.1,1.4,0.7,2.3,0.8c2.3-1,4.8-1.7,6.6-3c1.7-3.3,6.2-4.5,9.9-6.2c3.3-2.4,7.4-5.3,12.3-5.9c0.7-1.3,2.2-1,3.5-1.5
		c2.3-0.9,3.9-3.1,6-4.2c1-0.6,1.8-0.1,2.6-0.1c3.5-0.1,6.3-3.3,10.3-3.2c1.8-0.7,3.9-1,6.1-1.4c0,0.3,0,0.5,0.3,0.9
		c0.4,0.1,1.1-0.4,1.6-0.6c-0.1-0.2,0-0.3,0-0.5c4-0.5,8.1-0.9,11.7-2.3c1.3,1.1,0.1,2.9-1.1,3.2c-0.7-0.9-1.5-1.6-3-1.4
		c-0.6,0.9,0.4,1.5,0.5,2.3c-2.1,0.8-2.7,2.9-5.7,3.1c-0.2-0.5,0.9-1.1-0.1-1.1c-0.7,0.2-0.3,1-0.5,1.1c-4.7,1.6-10.5,0.3-14.8,3.3
		c-0.9-0.1-1.9-0.9-2.6-0.3c0.5,2.3,3.3,3.4,5,3.5c5.3,0.3,11.8-4.6,16.3-3.3c0.7-0.1,0.2-1.1,0.9-1.2c2.7-0.1,5.7-0.8,8.1-1.6
		c3.5-1.3,7.8-1.7,11.6-3.2c1.9-0.7,3.7-1.4,5.6-2.2c-0.1,1.5-0.2,3-0.3,4.5c-0.3,0.2-0.5,0.4-0.8,0.6c-2.5,0.6-3.9,1.8-5.7,2.6
		c0.3-0.5,0.3-1.1-0.3-1.7c-0.8,0.1-1.5,0.6-2,1.1v-0.1c-1.4,0.2-1.8,0-2.8,0.6c-0.2,0.7,0,0.9,0.2,1.7c-1.8,1-5.2,2.3-3.3,5
		c1.4,0.6,3-0.4,5.4-0.4c1.3-0.7,2.2-2.4,3.5-3.3c0.8-0.5,1.9-0.5,2.9-1c0.9-0.5,1.6-1.4,2.4-1.8h0.1c0,0.2,0,0.4-0.1,0.6
		c0.9,0.6,0.8,2,0.7,2.7c3,6.5,2.2,14,2.7,20.9c0.1,0.9-0.4,2-0.4,3c0,1.1,0.6,2.1,0.6,3c-0.1,1.6-1.1,3.1-1,4.7
		c1.1,2.1,1.1,4,2.3,4.9c3.3,0.3,2.7-3.3,2.6-5.4c0.7-0.2,1.1-0.1,1.6-0.7c0-1.1-0.3-1.4-0.9-2.7c-0.4,0-1,0.4-1.4,0.1
		c-1-2.6-0.1-4.9-1.1-8c0.8-6.8,0.3-14.5,0.6-21.6c0-1,0.2-2.6,1.2-3.3c1.1,0.9,0.9,2.6,2,3.1c-2,6.9-0.3,15.7,1,24.1
		c0,0.1,0,0.2,0.1,0.3c-0.1,0-0.3,0-0.5,0c0,0.3,0.1,0.6,0.1,0.9c0.2,0,0.3,0,0.5-0.1c0.8,3.6,2.3,7.1,2.9,10.5
		c0.5,2.4,1.4,5.4,2.6,7.8c0.3,0.7-0.9,0.7-0.6,1.4c3.5,3.3,2.4,11.4,5.4,15.8c1,1.4,3.3,3.2,5.6,2.5c0.1-0.9-1.1-1.4-1.6-2.1
		c0.5-5.2-3.6-9.6-4.6-14.5c0.1-0.2,0.9-0.3,0.7-1c-0.5-1-0.4,0.4-1,0.4c-1.4-2.7,0.1-4.2-0.2-6.5c0.8-0.4,1.8,0.2,2.3-0.7
		c-0.6-1.4-1.6-1.8-2.7-1.9c-0.3-1.2,0.6-3.1,2.2-2.6c1,6.6,5.5,13.1,6.5,19c2,3.4,0.7,7.4,2.4,10.5c0.4,0.7,1.2,1.1,1.2,2.3
		c0.1,2.4-1,4.8-0.6,7.3c0.2,1.4,1.2,2.6,0.5,3.8c2.1,4.6,1.6,9.5,1.1,13.6c0.3,4.1,1.6,8.5-0.4,11.7c-0.2,2.2,0.4,4.8,0.7,7.2
		c0.5,0.7,1.4,0.6,1.8,1.6c2.6-0.6,2.2-2.4,3.1-3.7c-0.3-7.1-1.5-14.6-1-21.4c-0.6-1.1-0.6-2-0.2-2.7c-0.2-0.4-0.3-0.8-0.5-1.2
		c0-2.5-0.2-4.8-0.3-7.4c-0.1-3,0.8-5.6,0.5-8.7c-0.1-0.9-0.6-1.8-0.7-2.8c-0.4-3.6,1-7.2,0.5-10.8c0.2,1.1,1.1,2.9,3.2,1.4
		c0.4-1.4-0.3-3.3,0.6-4.5c0.2,0.1,0.5,0,0.9-0.1c2.2,2.3-0.3,5.7-0.9,8.4c-0.6,2.8-1.8,5.7,1.5,5.7c1.9-1.4,1.4-3.8,2.3-5.7
		c-0.5-6.3,3.1-12.4,4.5-18.6c1.1-1.7,1.3-3.9,3.7-5.1c1,1.7,0.5,4.2,0,5.9c1.8,5.3-1.8,8.4-0.6,13.4c2.6,1.4,2.8-2.2,3.1-3.7
		c-1.8-5.9,1.2-9.8,0.2-15.4c-0.1-4.9,0.1-11.1-2.8-15.7c0.7,0.6,1.6,0.9,2.3,0.6c0.3-1.3-0.9-5.4-2.7-6c0.2-0.9-0.1-2,0.1-2.6
		c0.5-1.8,2.5-4,3.3-6.6c0.4-1.3,0.4-2.7,1-4.2c0.6-1.3,0.8-3.4,1.2-4.8c0.5-1.6,2.3-5.2,3.2-5.6c1.1-0.5,1.8,0.4,2.7,0.3
		c3.1,4.7,2.8,10.7,1.7,15.5c0.8,3.2,1.3,6,3.4,8.4c-1.6,1.3-1.2,3.4-1.6,5.1c-1.6-1.2-1.5-5-4-4.9c0.3,3.3,1.7,7,3,10.7
		c-1.1,0.2-0.9-1.5-2.1-1.7c-1.5,1.3,0.3,3.1,0.5,4.5c0.2,1.3-0.6,2.1-0.7,3.3c-0.4,3.9,1.2,8,1.1,12c-2.5,5,3.7,9.8,4.3,14.8
		c1.1,0.9,1.9,2.5,1.7,4c-1.4-0.7-1.3-2.7-2.8-3.3c3.2,6.4,3.9,12.5,4.6,18.9c0.2,2.3,0.1,4.3,0.1,6.3c0,2.2,2.2,5.1,2.6,7.6
		c0.5,3.4-1.3,8.5,3,10.7c1-0.1,1.2-0.8,2.3-1.2c0.9-3.6-1.9-7.3-2.4-11c-0.1-0.7,0.4-1.3,0.3-2c-0.1-0.9-0.7-1.8-0.7-2.7
		c-0.1-2.3-0.6-4.6,0.3-6.9c1.7,0.6,1.7,5.6,4.2,5.5c0.7-2.2-2.4-4.8-3.7-7.1c-0.4-0.7-0.8-1.5-1.2-2.3c-1.2-2.4-3-4.6-2.3-6.5
		c-1.2-3.6-0.4-8.3-0.7-11.9c-0.2-2.8-0.8-5.2,1.4-7.2c0.3-1.4,0-2.5-0.5-4.5c-1.3-5.4-0.6-10.7-1.1-16.2c0.4-1,0.7-2,1.6-2.8
		c2.3,0.8,3,5.3,5.7,5.1c-0.7-3.4-5.8-4.2-5.5-8c0-0.3,0.5-0.6,0.5-0.9c0-0.5-0.5-0.4-0.5-0.7c-0.2-1,0.5-6,1.4-6.7
		c-0.2-0.5-0.6-1.1-0.4-1.5c1.5-3.7,0.7-7.6-1.3-11.9c-1.3-2.7-2.8-6.2-1.9-8.3c-2.1-6.5,2.1-11.9,4.7-17c0.4-0.7,0.3-1.7,0.6-2.4
		c1.1-0.3,2.3-0.7,3.5-1.3c-0.1,0.7-0.1,0.4,0.1,1.1c1,0.2,0.2-1.1,0.7-1.4c1.8-0.8,3.5-1.5,4.7-2.7c6.2-1.1,10.9-3.5,14.6-6.7
		c-0.4,0.8,0.3,1.9,0.5,3c0.1,0.9-0.4,1.5-0.3,2c0.1,0.4,0.6,0.8,0.8,1.3c0.8,2-0.6,4.5,2.1,5.4c1.4,3.4,4.1,5.5,5.4,7.8
		c3.4,1.5,4.9,5.4,6.6,8.9c1.1,2.1,2.8,3.8,3.9,5.8c1.2,2.1,1.3,4.5,3,6c0,0.8-0.6,1.3,0.1,2.3c0.4,0.7,1,0.7,1.8,0.4
		c0,1.3,1.3,1.8,1.9,2.7c1.7,2.4,2.6,5.7,3.7,8.7c0.8,2,2.7,6,5.1,4.6c2.3-1.3-0.6-4.4-0.6-6.8c-4.2-4.1-5.9-9.8-9.6-15.8
		c-0.2-0.7,0.3-0.1,1.2-0.5c0.2-1.4-0.4-2.6-1.6-3.1c-0.6,0.5-0.3,1.3-0.6,1.9c-2.8-3.6-5.7-7-7.6-11.8c0.6-1.8-1.3-3.1-1.1-5.2
		c-1.9-3.5-3.2-7.7-6.2-10.7c-1-1-2.2-1.8-3.1-2.9c-1.7-2-2.7-3.6-5-4.6c1.9-1.7,3.6-3.5,5.2-5.4c0.2-0.2,0.4-0.4,0.6-0.6
		c1.3,0.7,2.6,1.4,4,2.1c0.5,0.8,0.9,1.7,1.1,2.8c1.8,1.2,2.5,2.8,4.1,4.1c3.3,4.5,6.2,6.9,8.9,12.4c1.5,3,4.3,5,5.3,9.7
		c1.5,0.9,3.3,3.3,4.7,1.5c1.1-1.4-1-3.5-1.6-4.9c-4.2-4.7-7.1-10.8-11.1-15.9c0.2-0.8,0.9-1.4,1.5-2c0.2-0.8,0.1-1.4-0.1-2
		c5.2,2.1,10.5,4.2,15.7,6.4c10.2,8.1,20.8,15.8,31.5,23c1.4,0.9,3.3-0.9,2.3-2.3c-3.6-5.2-8-9.3-12.8-12.8c1.7-0.5,3.1-1,3.1-1.6
		c0.1-2.1-4.1-1.1-5.2-1.3c-1.1-0.2-2.4-0.6-3.7-0.9c-3.8-2.2-7.8-4.1-11.9-5.9c-0.1,0-0.1-0.1-0.2-0.1c0.1-0.1,0.1-0.2,0.1-0.3
		c-0.4-0.4-1-0.8-1.7-1c-7.5-5.9-14.8-12-21.9-18.3c-0.2-1-0.4-1.9-0.7-2.8c-0.2-0.6-0.4-1.1-0.6-1.6c2.5-0.3,5-0.5,7.4-0.8
		c0.9-0.1,2,0.2,3,0.1c0.8-0.1,1.5-0.4,2.1-0.7c12,7.2,24.7,12.6,38.2,16.4c1.2,0.3,2-0.6,2.1-1.6l4.6,1.7c1.7,0.6,2.6-1.6,1.6-2.7
		C355.3,235.7,355,235.1,354.3,234.8z M330.2,187.9c-1.2-0.4-2.7,0.4-3.7-0.5C327.3,186.2,329.7,186.9,330.2,187.9z M330.4,154.9
		c-2.4,1.5-7.1,5.1-10,4.6C323.2,157.1,327.6,155.2,330.4,154.9z M313.8,203.9c0.8-0.2,1.5-0.4,2.3-0.7c0.3,0.2,0.7,0.5,1,0.8
		c-0.4,0.6-0.5,1.2-0.5,1.9C315.3,206.3,313.4,205.5,313.8,203.9z M111.7,94.8c2.6,1.3,6.1,4.5,7.9,7.7
		C116.6,101.9,113.3,97,111.7,94.8z M100.9,126C100.9,126,100.9,125.9,100.9,126c0.8-0.7,3.3-0.6,3.6,0.8
		C103.2,127.2,102.1,126,100.9,126z M102.3,208c1.6-0.6,3.2-1.5,4.9-1.9c0.7-0.1,1.5,0.1,2.2-0.1c4.2-0.7,8.2-2.1,12.2-2.6
		c0.2,0.2,0.3,0.5,0.4,0.7C115.3,205.4,108.8,206.6,102.3,208z M116.5,238c2.6-1.3,7.2-2.3,10.8-2
		C125.2,238.1,119.3,237.9,116.5,238z M126.6,181c-6.9,0.3-13.7,0.5-20.6,0.6c6.8-0.3,13.7-0.6,20.5-1.1l0.1,0.1
		C126.6,180.8,126.6,180.9,126.6,181z M126.6,160c-0.2-0.1-0.5-0.1-0.7-0.2c-0.4-2.8-3.2-4.9-4.7-6.7c-0.1-0.1-0.3-0.4-0.4-0.7
		c0.9,0.5,2.4,0.4,3.4,0.6c1.3,0.7,2.6,2,4,3.2c0,0.3,0.3,0.5,0.5,1.1C128,158.3,127.3,159.2,126.6,160z M122.2,145.5
		c2.3,0.3,4.7,0.4,7,0c0.2,1,0.5,2.1,1.4,3.1C126.8,151.8,124.1,147.7,122.2,145.5z M134.8,137.8c-0.2,0.6,0.6,0.7,0.9,1.2
		c-1.1,1-0.7,1.8-1.3,3.1c-1.9,0.4-1.1,2.2-2.4,3.6c-0.7-0.8-0.5-1.9-1.5-2.2c-0.4-0.1-0.7,0.1-0.9,0.3c0,0,0,0,0-0.1
		c-0.2-0.3-0.5-0.5-0.9-0.6c0.1-0.3,0.3-0.6,0.9-0.9c-0.7-7.2-9.7-6-13.3-11.3c-0.6-0.6,0.3-1.1-0.1-1.7c-0.7-1.4-2.2-1.2-2.5-2.1
		c0.3-0.2,0.2-0.4,0-0.6c2.4-2.1,6.7-0.1,7.1,2.6c2.8,0.7,3.5,2.9,6.4,3.8c1.9-0.7,3.8,0.7,5.6,1.3c0.7,0.2,1.7,0.5,2.6,1
		c0.1,0.6,0.2,1.3,0.2,2.1C135.9,137.8,134.8,137.1,134.8,137.8z M135.7,264.9c-0.2-1,1.4-3.1,2.7-2.5
		C138.1,263.7,136.4,263.9,135.7,264.9z M137.6,108.1c0.8-0.3,1.5,0.1,2.3,0.3c0.8-0.8-0.5-1.8-1.3-2.7c3.8-0.1,6.4,2.4,8.8,5.7
		C144.7,110.7,140.1,110.9,137.6,108.1z M145.1,114.1L145.1,114.1c-0.8-0.6-1.5-1.4-1.7-2.2c1.8,0.4,3.5,1.6,5.3,0.7
		c0.2,0.4,0.4,0.8,0.7,1.2c-0.6-0.1-1.2-0.2-1.8-0.3C146.9,114,145.9,114.7,145.1,114.1z M165.1,258.7c-0.4,0-0.8,0.1-1.2,0.1
		c0.6-0.6,1.2-1.3,1.8-2C165.6,257.5,165.4,258.1,165.1,258.7z M166.5,250.9c0,0.7-0.1,1.4-0.1,2c0,0,0,0-0.1,0
		c-0.4-0.9-0.8-0.9-0.7-2.1c-6.2-3.6-10.5,4.4-16.9,4.2c-0.8,0.2-0.7-0.9-1.4-0.9c-1.6-0.2-2.3,1.1-3.2,0.8c0-0.4-0.2-0.4-0.5-0.4
		c-0.3-3.2,3.8-5.5,6.2-4.2c2.2-1.9,4.4-1.1,6.8-3c0.3-1.2,1.2-1.9,2.3-2.5c-0.6,1.7-0.7,3.3,1.2,4.3c2.9-1.4,2.4-4.1,3.5-6.2
		C167.2,242.1,166.6,247.4,166.5,250.9z M167.4,129.5c-0.2,0.2-0.8,0.4-1.4,0.5c-0.4-0.7-0.8-1.5-1.5-2.1c0.3-2.6-0.8-4.3-2-6.2
		c2.3,1.3,4.4,3,5.9,5.3C167.8,127.7,168.3,128.7,167.4,129.5z M171.1,267.3c-0.1-0.1-0.1-0.2-0.2-0.2c0.3-1,0.5-2,0.6-2.9
		c1.1-2.4,4.2-3.9,7-3.5c0.3,0.8,0.4,1.7,0.5,2.5C176.3,265,174.2,267.7,171.1,267.3z M198,303.4c-1.5,0.1-2.7-0.7-4.1-0.8
		c-2.4-3,0-7.1-0.4-10.9c-0.2-1.5-1.6-3.7-2.2-5.6c-0.9-2.8-1.2-6.1-3.7-6.9c0.2-1.1-0.6-2.6-0.2-3.7c2.1-0.7,2.7,0.4,4.6-0.3
		c5.1,3.8,3.6,11.8,4.8,17.2c0.6,2.6,1.8,5.1,1.9,7.2C198.5,300.8,197.5,302.4,198,303.4z M204.7,304.5c-1.2-2.6-3.8-6.7,0.6-9
		c0.6,1.2,1.4,1.9,2.3,2.5C206.2,300,205.4,302.2,204.7,304.5z M230.7,113.2c0.5,1.5-0.7,2.2-1.8,2.9c-0.1-0.7-0.3-1.3-0.6-1.7
		C229,113.8,229.6,113.2,230.7,113.2z M213.8,332.1c0.5-1.1-0.2-2.7,0.8-3.6C215.7,329.3,214.7,331.7,213.8,332.1z M218.6,319.9
		c-0.1-0.2-0.3-0.4-0.6-0.2c-0.7-0.6,0.1-1.9-0.9-3.1c-0.4-0.6-1.2,0.1-1.5-0.8c-3.4-5.5,1.4-13.2-4.8-16.7c-1,0.7-1.2,0.4-2.2,0.5
		c-0.1-0.3-0.2-0.5-0.3-0.8c0.3-0.5,1.5,0.1,1.7-1c0.1-1.1-1.1-1.3-1.5-2.4c0-4.1,6.4-6.2,9.4-4.3c2.1,2.7,1.7,6.2,1.5,8.3
		c-0.2,1.9,0.3,4.2-1.1,5.6c-0.4,3,1.4,4.5,0.8,7.4C221.5,313.8,221.5,318.5,218.6,319.9z M237.2,125.6c-0.8,0.8-1.5,1.6-2,2.5
		c-0.1-0.9-0.3-2-1.4-2.4c-0.8,0.8-0.2,3,1,3.3c-0.1,0.2-0.1,0.3-0.2,0.5c0,0,0,0,0.1,0c-2.3,0-4.7,0-6.1-2.3
		c-2.7-0.7-5.6-1-8.4-1.6c-0.4-1.7,0.3-4,0.5-6.1c2.2-1.5,4.9-2.9,6.9-4.4c0.2-0.2,0.4-0.3,0.6-0.5c0,0.5,0.1,1.2,0.2,1.9
		c-0.2,0.1-0.4,0.3-0.5,0.4c-1.7,1.6-2.8,3.7-2,5.9c2.5-0.9,3.7-3.3,6.9-4.1c0.8-1.4,1.8-2.2,2.7-3.2c0.1,1.8,0.5,3.6,1.9,5.2
		C236.6,122.5,237.4,124.1,237.2,125.6z M243,324.7c2.1,3,3.6,7.5,3.8,10.4C245.5,332.6,242.3,327.6,243,324.7z M247.9,305.9
		c-0.5-1-0.8-2.7-1.9-2.2c-0.2,0.8-0.1,1.6-0.7,2.2c-1.6-3.5,0.6-7.6,1-10.3C248.3,299.1,249.5,302.5,247.9,305.9z M310.3,243.5
		c-3.4-1.4-6.9-2.7-10.3-4.2v-0.1c-0.7-1.6-1-3.6-1.4-5.6C302.4,237,306.3,240.3,310.3,243.5z M293.2,236.2
		c-0.1-0.2-0.2-0.3-0.3-0.5c-1.4-1.8-3.3-2.9-5.4-2.5l0,0c1-1.8,1.8-3.9,3-5.5c1.6,2.4,2.8,5.5,4.3,8c0.5,0.8,1,1.3,1.4,1.9
		C295.2,237.1,294.2,236.7,293.2,236.2z M302.5,220.8c-1.6-0.1-3.3,0-4.9,0c1.2-1.1,2.3-2.2,3.4-3.4c1.3,0.9,2.7,1.8,4,2.7
		C304.2,220.3,303.4,220.4,302.5,220.8z"/>
	<path class="st0" d="M10.5,234.2c-0.2-1.1-1.2,0.1-0.4,0.2C10.3,234.4,10.4,234.3,10.5,234.2z"/>
	<path class="st0" d="M97.6,385.6c0.1,0.7,0.6,0.4,0.7,1.1c0.1-0.2,0.2-0.3,0.5-0.5C98.5,385.5,98.1,385.4,97.6,385.6z"/>
	<path class="st0" d="M63,298c-0.2-0.5-0.4-1-0.9-0.5C62.2,298,62.5,298.2,63,298z"/>
	<path class="st0" d="M134.3,464.4c-0.3,0.6,0.6,1.7,0.8,2.5c0.3-0.9,1.8-0.3,2.1-1.1C136.6,464.3,135.3,464.7,134.3,464.4z"/>
	<path class="st0" d="M105.1,389.4c-0.3,0.8,0.7,1.1,1.1,1.4C106.6,390.1,105.9,389,105.1,389.4z"/>
	<path class="st0" d="M124.6,427.4c0.3,0.7,0.7,0.9,1.4,0.6c0.1-0.3,0-0.6-0.2-1.1C125.4,426.7,124.8,427,124.6,427.4z"/>
	<path class="st0" d="M155.4,496.6c-1.2,0.5,0,2.2,0.7,2.3C157.2,498.5,155.9,496.7,155.4,496.6z"/>
	<path class="st0" d="M112.2,394c-0.2,0.8,0.6,1.8,1.1,2.1C115.6,395.5,113.7,392.8,112.2,394z"/>
	<path class="st0" d="M120.7,410.5c-0.9,0.6-1.3,1.3-0.5,2.6c0.8-0.7,1.8-1.3,1.3-2.4C121.2,410.5,120.8,410.7,120.7,410.5z"/>
	<path class="st0" d="M78.8,314.1c0.2,0.6,0.4,1.1,1,0.7C80.1,314.2,79.4,313.8,78.8,314.1z"/>
	<path class="st0" d="M119.5,405.6c-0.2,0.1,0,0.5-0.2,0.6c0.2,0.3,0.5,0.3,1,0.1C120.1,405.6,119.7,406,119.5,405.6z"/>
	<path class="st0" d="M151.2,472.2c0,0.5-0.2,1.2,0.4,1.5c0.6-0.3,0.8-0.8,0.6-1.4C151.8,472.4,151.7,471.8,151.2,472.2z"/>
	<path class="st0" d="M49.9,233.2c-0.3-1.1-1.5-0.8-1.6,0C48.6,233.8,49.6,234,49.9,233.2z"/>
	<path class="st0" d="M91,329.5c-0.1,0.3,0,0.6,0.2,1.1c0.5-0.1,0.7-0.4,0.9-0.6C91.9,329.5,91.6,329.3,91,329.5z"/>
	<path class="st0" d="M152.4,434.7c-0.4,0.2-0.2,0.7,0,1.2c0.3-0.1,0.5-0.2,0.8-0.3C153.1,434.8,152.7,435,152.4,434.7z"/>
	<path class="st0" d="M163.5,461.7c0.1,0.3,0.2,0.5,0.3,0.8c0.3-0.1,0.5-0.2,0.8-0.3C164.5,461.4,164.1,461.3,163.5,461.7z"/>
	<path class="st0" d="M181.8,488.8c0.1,0.1,0.1,0.3,0.2,0.4c0.2-0.1,0.4-0.2,0.6-0.3c-0.1-0.2-0.2-0.4-0.3-0.6
		C181.9,488.4,182,488.6,181.8,488.8z"/>
	<path class="st0" d="M158.3,433.6c0.1,0.4,0.4,0.5,0.5,0.7c0.6-0.1,0.2-0.6,0.6-0.7C159.1,433.1,158.7,433.3,158.3,433.6z"/>
	<path class="st0" d="M140.1,382c0-1.6-1.5-2.5-2.6-2.7C137.3,380.8,138.8,382.3,140.1,382z"/>
	<path class="st0" d="M164.1,435.8c1.3-0.5-0.3-2.9-0.9-3.6c-0.3,0.2-0.5-0.1-0.9,0.1C162,433.7,163.4,435.2,164.1,435.8z"/>
	<path class="st0" d="M181.1,471c0.9,1.3,3.6,1,4.2-0.6C184.8,467.9,181.1,469.4,181.1,471z"/>
	<path class="st0" d="M127.4,331.7c0.2,0.5,0.4,0.8,0.9,0.5C128.1,331.7,127.9,331.4,127.4,331.7z"/>
	<path class="st0" d="M105.9,268.5c-0.1-1.8-1.9-3-3.5-2.2C102.1,268,104.3,268.8,105.9,268.5z"/>
	<path class="st0" d="M178.3,444.1c0.6,1.3,2.5,1.3,3.6,0.1C181,442.8,178.9,442.8,178.3,444.1z"/>
	<path class="st0" d="M135.5,340.2c0.5-0.1,0.5-0.4,0.7-0.5c-0.1-0.7-0.7-0.2-0.9-0.5C134.8,339.4,135.1,340.1,135.5,340.2z"/>
	<path class="st0" d="M185.2,424.3c-1.6-3.1-5.2-1.8-8-2.2c-1.1-0.1-1.9-0.8-3-0.4c-0.4,0.4-0.4,1,0.1,1.8
		C177.8,423.8,181.7,427,185.2,424.3z"/>
	<path class="st0" d="M92.7,225.4c-0.2,0.1,0,0.5-0.2,0.6c0.1,0.2,0.4,0,0.7-0.1C93.1,225.5,92.9,225.6,92.7,225.4z"/>
	<path class="st0" d="M201.3,465.4c-1.6,1.9-0.5,4.7-0.4,7.2c0,1.5-1.1,3.2,0.2,4.4c1.3-0.6,1.1-1.9,0.5-3.3
		C201.5,471,202,468.5,201.3,465.4z"/>
	<path class="st0" d="M187.1,435.6c-1.5,1.2,0.5,3.6,1.9,3.4C190.6,437.6,188.9,435.5,187.1,435.6z"/>
	<path class="st0" d="M207.1,480.8c-1.7,1,0.6,3.9,1.8,3.7C209.9,483.2,208.2,481.1,207.1,480.8z"/>
	<path class="st0" d="M121.9,282c-0.5,0.1-0.8,0.4-0.9,0.6c0.3,0.8,0.7,1.2,1.5,0.8C122.7,283,122.3,282.1,121.9,282z"/>
	<path class="st0" d="M184.2,426.4c-0.1,0.2,0,0.5,0.1,0.9c0.5-0.2,0.8-0.4,0.5-0.9C184.7,426.3,184.5,426.2,184.2,426.4z"/>
	<path class="st0" d="M190.2,438.5c0,0.3-0.3,0.5-0.6,0.7c0.5,0.4,0.9,1,1.6,1c0.6-0.1,0.4-0.5,0.9-0.6
		C191.7,438.5,191,438.4,190.2,438.5z"/>
	<path class="st0" d="M166.7,384.6c1-0.5,0.8-1.4,0.6-2.4C166.6,382.8,166.1,383.5,166.7,384.6z"/>
	<path class="st0" d="M202.8,453.7c0.2,0.8,0.8,0.7,1.3,0.8c0.5-0.1,0.3-0.5,0.9-0.6C204.5,452.8,203.6,453.1,202.8,453.7z"/>
	<path class="st0" d="M198.8,441.6c0.1,0.2,0.2,0.4,0.3,0.6c0.3-0.1,0.5-0.2,0.8-0.3C199.7,441.3,199.3,441.3,198.8,441.6z"/>
	<path class="st0" d="M188,415.6c1.3,1.5,3.9,1.4,5.7,0.1C192.9,413.3,189.2,414.4,188,415.6z"/>
	<path class="st0" d="M203.7,451.9c0.2,0.1,0.3,0.2,0.5,0.5c0.4-0.1,0.3-0.4,0.7-0.5c-0.1-0.5-0.4-0.7-0.6-0.9
		C203.9,451.2,204.1,451.7,203.7,451.9z"/>
	<path class="st0" d="M203.7,443c-1-5.3-0.2-10.7-0.5-16c1.4,0.3,2.2,2.1,3.7,2.1c-2.3-1.5-3.9-4.8-6.7-5.1c0.6,1.1,1.3,1.8,2.1,2.2
		c-1.5,4-0.2,9.6-0.2,14.9c0,1.8-1,4.2,1.1,5.2C204.3,445.5,203.8,444,203.7,443z"/>
	<path class="st0" d="M214.3,471.3c-1,2,0.8,4.6,2.3,5.4C217.9,475,216,471.9,214.3,471.3z"/>
	<path class="st0" d="M214.5,464.2c0.3-0.3,0.3-0.8,0.2-1.2c-0.2,0-0.4-0.1-0.7,0.1C213.8,463.4,214.1,464,214.5,464.2z"/>
	<path class="st0" d="M177.1,368.2c-0.4-1.5-1.3-1.9-2.5-1.5C175.2,367.7,175.8,368.8,177.1,368.2z"/>
	<path class="st0" d="M207.5,439.2c-0.8,0.5-0.3,2.5,0.7,2.3C209.4,440.8,208.6,439.2,207.5,439.2z"/>
	<path class="st0" d="M220.2,465.5c0.1,0.4,0.4,0.5,0.5,0.7c0.1-0.2,0.2-0.3,0.5-0.5C221.1,465.2,220.7,465.2,220.2,465.5z"/>
	<path class="st0" d="M185,379.6c-1.6,0.8,0.7,2.9,1.5,1.2C186.5,380,185.7,379.7,185,379.6z"/>
	<path class="st0" d="M219.2,461c1.1,1.4,4.3,1.1,5.5-0.3C223.7,459.3,220.4,459.6,219.2,461z"/>
	<path class="st0" d="M191.4,389.9c-0.1-0.1-0.1-0.3-0.2-0.4c-0.3,0.1-0.3,0.3-0.5,0.5C191,390.4,191.2,390.3,191.4,389.9z"/>
	<path class="st0" d="M184.6,363.8c-0.7-1.7-2.1-2.1-3-1C181.4,364.3,183.5,365.2,184.6,363.8z"/>
	<path class="st0" d="M194.6,383.9c-0.6,0.1-0.4,0.5-0.9,0.6c0.3,0.8,0.7,1.2,1.5,0.8C195.4,384.9,195,384.1,194.6,383.9z"/>
	<path class="st0" d="M225.5,456.9c-0.5,0.3-0.4,1.3,0.2,1.6c0.6-0.1,0.2-0.6,0.6-0.7C226.1,457.2,225.7,457.2,225.5,456.9z"/>
	<path class="st0" d="M202.1,401.3c-0.2-0.5-0.5-1.1-0.7-1.6c-0.4,0.5-0.7,1.6,0.2,2C201.7,401.6,201.8,401.4,202.1,401.3z"/>
	<path class="st0" d="M185.5,348.6c-1.5,2.4-1,5.6-3,7.9c0.3,0.7,0.1,0.9,0.6,1.4c2.1-1.6,0.9-4.9,2.4-6.9
		C184.9,349.8,185.9,349.8,185.5,348.6z"/>
	<path class="st0" d="M231.8,464c0.2-0.4-0.2-0.9-0.4-1.5C230,462.9,230.9,464.3,231.8,464z"/>
	<path class="st0" d="M194.2,367.2c0.7-0.1,0.6-0.5,1.1-0.7C194.8,363.6,191.9,366.4,194.2,367.2z"/>
	<path class="st0" d="M203.4,386.3c0.3-0.6-0.3-0.6-0.6-0.9C202.4,385.7,202.6,386.7,203.4,386.3z"/>
	<path class="st0" d="M229.7,448.2c-0.2,0.6,0.7,0.8,1.1,0.9C231.2,448.7,230.3,447.9,229.7,448.2z"/>
	<path class="st0" d="M198.7,346c-0.4,1.6-1.8,3.8-0.4,5.6C199.4,350.1,198.9,348,198.7,346z"/>
	<path class="st0" d="M216.1,382.9c0.2,1.2,1.6,2.4,3,2C218.5,383.2,217.4,382.9,216.1,382.9z"/>
	<path class="st0" d="M239.7,437.6c-0.2,1,0.8,1.6,1.8,0.9C241.2,437.4,240.6,437.2,239.7,437.6z"/>
	<path class="st0" d="M246.5,432.7c0.1,0.6,0.5,0.4,0.6,0.9c0.3-0.1,0.7-0.3,1-0.4c-0.1-0.2-0.1-0.4,0-0.5
		C247.9,431.9,246.8,432,246.5,432.7z"/>
	<path class="st0" d="M260.3,455.5c-0.4,0.1-0.3,0.4-0.7,0.5c0.2,0.4,0.3,0.8,0.5,1.2c0.4-0.3,0.6,0.2,1.1-0.2
		C261.4,456.4,260.7,455.6,260.3,455.5z"/>
	<path class="st0" d="M227.1,377.2c1-0.6-0.2-1.2-0.5-2.2C226.7,375.7,226.2,376.9,227.1,377.2z"/>
	<path class="st0" d="M263.9,438.2c0.5,1.2,2.1,0.5,2.4-0.3C265.9,437.1,264.4,437.5,263.9,438.2z"/>
	<path class="st0" d="M268.6,449.3c1.5-1.1-0.6-5.3-2-6.9C265.4,444.1,268.5,446.7,268.6,449.3z"/>
	<path class="st0" d="M255.6,400.5c-4.8,0.9,0.6,5.5,2,2.4C257.5,401.6,256.4,401.1,255.6,400.5z"/>
	<path class="st0" d="M247.7,385.3c-0.5,1.1,0.3,1.7,0.9,3.1c1.3-0.2,2.5,0.8,3.8-0.5C252.2,385.3,250.1,384.2,247.7,385.3z"/>
	<path class="st0" d="M232.5,350c-0.4,1,0.4,2,1.6,1.4C234.6,350.5,233.9,349.2,232.5,350z"/>
	<path class="st0" d="M235.9,356.1c-0.7,1.8,1.9,4.1,4.1,2.5C239.8,356.2,237.6,355.8,235.9,356.1z"/>
	<path class="st0" d="M269.8,430.2c-0.1,0.1-0.2,0.6,0.1,0.7C270.3,431.1,270.4,429.6,269.8,430.2z"/>
	<path class="st0" d="M268.2,414.4c0.7-0.2,1.1-0.5,0.6-1.2c-0.7,0-0.8,0.2-1.1,0.7C267.9,414,268,414.1,268.2,414.4z"/>
	<path class="st0" d="M235.6,333.2c-1.2,0.3-0.9,2-0.1,2.6C236.9,335.3,236.4,334.2,235.6,333.2z"/>
	<path class="st0" d="M268,387.3c0.2,0.7,0.6,0.6,1.1,0.5C269.5,387,268.3,386.5,268,387.3z"/>
	<path class="st0" d="M268.1,382.6c-1.3,0.4-1,1.4-0.2,2.2C269.2,384.6,268.8,383.1,268.1,382.6z"/>
	<path class="st0" d="M283.8,396.2c0-0.3,0.1-0.6,0.3-0.9c-1.5-3-4.8-3.8-7.5-2.7C278.1,395.3,280.1,397.5,283.8,396.2z"/>
	<path class="st0" d="M281.2,398.2c-0.7,2.8,4.6,5.1,6.3,2C286.8,397.5,283.9,397.3,281.2,398.2z"/>
	<path class="st0" d="M236.6,282c-0.5,1.8-0.4,3.9,0.3,6.2C237.2,286.3,236.8,284.1,236.6,282z"/>
	<path class="st0" d="M245.6,303.4c0.3-0.4,0.6-1.2,0.1-1.4C245.3,302.3,245.2,302.7,245.6,303.4z"/>
	<path class="st0" d="M281.8,374.6c-0.2-3-5.8-6.8-7.5-5C275.5,372.5,278.5,376.6,281.8,374.6z"/>
	<path class="st0" d="M296.3,411.9c0.3,1.2-0.9,2.7,0.5,3.8C298.2,414.9,298.4,411.7,296.3,411.9z"/>
	<path class="st0" d="M288.8,393.1c0.5,3.3,3.5,4.9,3.8,7.8c0.5,0,0.7,0.7,1.3,0.4c-0.3-2.6-3.1-3.8-3.2-6.9
		C290.4,395.9,289.4,393.6,288.8,393.1z"/>
	<path class="st0" d="M286.4,386c0.1,0.3,0.3,0.7,0.4,1C288.2,386.8,287.5,385.1,286.4,386z"/>
	<path class="st0" d="M290,390.2c-0.2,0.4,0.1,1,0.2,1.6C290.5,391.4,290.3,390.9,290,390.2z"/>
	<path class="st0" d="M289.5,387.7c-0.8,0.5,0.3,1.6,0.1,2.3C290.3,390.1,289.6,388.4,289.5,387.7z"/>
	<path class="st0" d="M288.9,384c-0.3,1.8,1.4,2.6,2.5,1.5C290.9,384,290.2,383.2,288.9,384z"/>
	<path class="st0" d="M271.9,340.7c-0.3,1.8,1.7,3.6,3.6,2.4C276.1,341.3,274,339.1,271.9,340.7z"/>
	<path class="st0" d="M293.7,386.4c0.8-0.1,0-0.7,0-1.2C293.4,385.5,293.6,386,293.7,386.4z"/>
	<path class="st0" d="M301.8,399.9c-1.2-1.9-2.5-3.5-4-4.9C298.6,396.4,299.9,400,301.8,399.9z"/>
	<path class="st0" d="M281.7,337.4c-1,0.1-2,1.6-3.6,1.5c-0.3,1,0,1.6,0.7,2.8c1.2-0.4,2.6,0.7,3.4,0.2
		C283.5,341,282.6,338.8,281.7,337.4z"/>
	<path class="st0" d="M281,342.4c-1.1,0.2-0.8,1.5-0.1,1.9C282.1,343.9,281.8,342.5,281,342.4z"/>
	<path class="st0" d="M268.8,301.8c1.1,1.9,2.1,3.6,1.7,5.1c1.4,1.6,2.2,3.7,3.2,5.7c1.8,3.9,2.6,8.2,4.2,12.5
		c0.2,0.6,0.8,1.3,1.1,1.9c1.1,3.4,0.1,7.6,3.3,9.9c0.9-0.1,1.5,0,2.3-0.7c0.2-5.4-3.1-9.6-4.8-15.1c-1.1-3.3-2.3-6.8-3.8-10.4
		c-0.8-2.1-1.1-4.2-2.1-6.4c1.7,0,2.3-2.2,1.9-3.7c-0.6,0.1-1.1,0.4-1.5,0.7c-0.3-0.3-0.7-0.2-0.9-0.5c-0.8-5.7-3.3-12.1-5.1-18
		c-0.5,0.2,0,0.9-0.2,1.2c-1-0.1-1.4-1.6-2.5-1.5c-2.9,5,1.5,12.2,3.4,18.8c-1.4-1.4-2.9-2.3-4.5-3.3
		C265,299.7,266.9,301.8,268.8,301.8z"/>
	<path class="st0" d="M257.3,266.9c-1.3,1.4-1.3,4.1-0.6,5.7c0.9-0.3,1.2-0.8,0.7-1.7C257.6,269.4,258.2,268.5,257.3,266.9z"/>
	<path class="st0" d="M295.2,355.6c1.1-0.2,0.8-1.1,0.3-1.5C294.4,354.4,294.7,355.2,295.2,355.6z"/>
	<path class="st0" d="M261,273.5c-0.2-0.5-0.5-1.1-0.7-1.6c-0.3,0.5-0.5,1.1-0.1,1.9C260.5,273.8,260.8,273.6,261,273.5z"/>
	<path class="st0" d="M309.4,387.1c0.1,0.6,0.5,0.4,0.6,0.9c0.1-0.2,0.2-0.3,0.5-0.5C310.3,386.9,310,386.8,309.4,387.1z"/>
	<path class="st0" d="M284.9,324c0-0.7-0.2-1.1-0.8-1.3C283.5,323.3,283.9,324.5,284.9,324z"/>
	<path class="st0" d="M185.2,91c0.1,0.5,0.4,0.5,0.5,0.7c0.7-0.2,0.9-0.6,0.7-1.2C186,90.3,185.4,90.6,185.2,91z"/>
	<path class="st0" d="M259.1,257c-0.4-1-1.1-1.1-1.9-1.1c-0.3,0.7-0.3,1.5,0.6,1.9C258.5,257.6,258.7,257.2,259.1,257z"/>
	<path class="st0" d="M309.9,378.5c0.3-0.9-0.8-0.8-1.1-1.4C308.5,377.5,309.3,378.9,309.9,378.5z"/>
	<path class="st0" d="M283.2,300.3c0.6,1.6,0.4,3.6,2.3,4.2c1.4-1.7-0.1-3.3-1.1-4.7c-2.1-3-2.7-8.7-5.1-11.9
		C278.5,292.1,281.7,296.2,283.2,300.3z"/>
	<path class="st0" d="M281.6,290.3c0,0.8,0.5,2.3,1.3,2.5C283.1,292,282.6,290.2,281.6,290.3z"/>
	<path class="st0" d="M274.7,259.9c0.5-0.5-0.3-1.1-0.7-1.6c-0.4,0.7,0.3,0.8,0.2,1.6C274.4,259.8,274.6,259.8,274.7,259.9z"/>
	<path class="st0" d="M276.1,254.4c-0.1-0.4-0.4-0.6-0.8-0.3C275.4,254.5,275.7,254.6,276.1,254.4z"/>
	<path class="st0" d="M297.6,297.5c1,1.4,1.5,4.5,3.7,3.6c0.9-2-1.4-2.9-2.5-4.1c-2.5-2.9-4.5-7-6.5-10.1c-0.5,0.2-0.7-0.1-1.3,0.3
		c1,3.4,2.8,6.4,5,8.9C296.5,296.6,297.2,296.9,297.6,297.5z"/>
	<path class="st0" d="M290.2,281.7c-0.1,0.8,0.9,2.8,1.4,3.4C291.9,283.9,290.6,283.2,290.2,281.7z"/>
	<path class="st0" d="M305.6,292.6c-0.4-1.4-2.8-3.5-3.5-4.4c-0.9-1-1.6-2.4-2.5-3.6c-0.8-1.1-1.8-2.2-2.6-3.3
		c-1.8-2.7-2.7-6-4.5-8.9c-1.2-1.9-3.5-4.1-5-5.1c-0.5-0.3-1.3-0.3-1.7-0.7c-1.6-1.3-2.3-4.2-3.8-4c4.9,11.2,13.9,20.1,19.5,31
		C302.4,295.8,306.5,296,305.6,292.6z"/>
	<path class="st0" d="M305.2,311.3c0.6-0.5-0.2-0.5-0.3-1.3C304.3,310.2,304.8,311.1,305.2,311.3z"/>
	<path class="st0" d="M304.8,301.8c-0.3,0.5,0.5,1.4,0.7,2.1C306.3,303.6,305.1,302,304.8,301.8z"/>
	<path class="st0" d="M307.4,306.6c-0.4,0.3,0.3,1,0.4,1.5C308.4,307.6,307.5,307.4,307.4,306.6z"/>
	<path class="st0" d="M336.6,367.4c-1.5,1.1,0.4,3.3,1.3,4.1c0.8-0.8,0.7-1.9,1.1-2.8C338.5,367.7,337.5,367.7,336.6,367.4z"/>
	<path class="st0" d="M309.2,300.9c1.3-1.1-1.3-3.5-2.4-3.9C307.6,298.3,308.1,300.2,309.2,300.9z"/>
	<path class="st0" d="M328.2,340.8c-0.5,0.2-0.9,0.4-1.4,0.6c-0.7,2.3,1.6,5.2,3.8,5C332.4,344.3,330.4,341.5,328.2,340.8z"/>
	<path class="st0" d="M327.8,335.6c-0.3,2.3,1.1,4,3.4,4.2C333.2,337.9,330.3,334.5,327.8,335.6z"/>
	<path class="st0" d="M293.8,256.4c-0.1,0.1-0.2,0.6,0.1,0.7C294.4,257.3,294.5,255.8,293.8,256.4z"/>
	<path class="st0" d="M301.7,260.7c-1.5-1.9-2.3-4.2-4.1-5.7c-0.4-0.3-1-0.5-1.3-0.9c-2.3-2.3-2.7-6.7-6.3-8.1
		c0.6,4.5,4.9,8.9,6.9,12.3C298.3,260.6,300.3,264.1,301.7,260.7z"/>
	<path class="st0" d="M297.5,252.1c-0.6,0.4,0.1,1.1,0.4,1.5C298.5,253,297.8,252.4,297.5,252.1z"/>
	<path class="st0" d="M330.1,326.2c-0.2,0.1-0.4,0.2-0.6,0.3C329.5,327.1,330.7,326.6,330.1,326.2z"/>
	<path class="st0" d="M337.7,313.3c-1.6,2.4,1.3,8.9,4.2,7.6C345.2,319.4,340.7,311.9,337.7,313.3z"/>
	<path class="st0" d="M323,277.4c-0.3-0.9-0.8-1.2-1.5-1.2C319.2,277.1,322.3,279.6,323,277.4z"/>
	<path class="st0" d="M316.2,265.5c0.1-0.1,0.3-0.1,0.4-0.2C316.4,264.3,315.4,265.4,316.2,265.5z"/>
	<path class="st0" d="M349.6,329.7c-1.3,0.3-0.5,2.6,0.5,2.4C351.7,331.6,350.4,329.9,349.6,329.7z"/>
	<path class="st0" d="M237.2,63c1.1-0.3,1.8-2.1,1.3-3.6C237.1,59.6,237.4,61.8,237.2,63z"/>
	<path class="st0" d="M322.2,257.1C322.1,258.3,323.5,258.3,322.2,257.1L322.2,257.1z"/>
	<path class="st0" d="M251.8,59.1c0.6-1.5,2.1-3.2,1.6-4.9c-1.8-0.1-1.3,0.5-1.8,1.9c-0.7,1.9-3.4,4.7-2.7,7.3
		C250.7,62.8,251.2,60.6,251.8,59.1z"/>
	<path class="st0" d="M263.6,94.5c0-0.2,0-0.4,0.2-0.6c-0.4-0.6-0.9-0.8-1.6-0.5C262,94.3,262.9,94.9,263.6,94.5z"/>
	<path class="st0" d="M359.6,275.3c-1.9,0.4-0.5,2.4,0.7,1.6C360.4,276.1,360.2,275.8,359.6,275.3z"/>
	<path class="st0" d="M362.1,279.6C361.9,276.1,358.9,280.6,362.1,279.6L362.1,279.6z"/>
	<path class="st0" d="M320.3,175.2c0.7,0,0.4-0.5,0.6-0.7c-0.2-0.2-0.6,0-0.9,0.1C320.1,174.8,320.2,175,320.3,175.2z"/>
	<path class="st0" d="M363,248.5c-1.6,0.7-1.9,1.7-1.2,3.8c0.3,1,3.3,4.8,5.1,4.2C370.3,255.3,367.1,246.7,363,248.5z"/>
	<path class="st0" d="M300.1,54.7c-0.1-0.1-0.1-0.3-0.2-0.4c-0.2,0.1-0.4,0.2-0.6,0.3c0.1,0.2,0.2,0.4,0.3,0.6
		C300,55.1,299.9,54.8,300.1,54.7z"/>
	<path class="st0" d="M350.6,161.7c0.2,0.7,0.6,0.9,1.2,0.6c-0.1-0.4,0.4-0.6,0-1.2C351.4,161.1,350.7,161.3,350.6,161.7z"/>
	<path class="st0" d="M271.1,332.8c-1.5-2.9-2.2-5.4-3.4-8.9c-1.2-3.6-1.1-8.5-2.2-12.7c-0.5-1.8-1.3-3.4-1.4-5
		c-0.1-0.7,0.2-1.4,0-2.1c-0.8-2.6-3.1-4.7-3.3-7.7c-0.6-0.2-0.6-0.6-1.2,0c-0.2-0.8-0.4-2-1.1-2.6c-1.5,2.2-0.3,4.7,0.1,6.8
		c0.5,2.3-0.2,4.9,0.6,7.5c0.6,0.3,1.4,0.4,2-0.4c-1,1.8,0.1,6.3,0.3,9.5c0.1,1.5-0.2,3.6,2.1,3.8c1,1.8,2.1,3.9,2.8,6.5
		c0.7,2.8,0.5,5.9,1.1,7.5c0.5,1.3,1.6,2.9,2.7,2.6C272.5,336.9,270.4,334.4,271.1,332.8z M260.1,301.3c0.6,1.5,0.9,2.9,0.8,4.1
		C260,304.2,260,302.8,260.1,301.3z"/>
	<path class="st0" d="M391.7,250.2c-8.6-6.1-18.1-9.8-28.5-11.2c-0.1,0-0.2,0-0.2,0c-0.5-0.3-1-0.6-1.5-0.9
		c-1.8-1.2-3.5,1.7-1.7,2.9c3.8,2.5,7.8,4.7,11.9,6.5c5.7,2.6,11.7,4.7,18,6.2c0.6,0.2,1.1-0.1,1.5-0.4
		C392.5,253,393.1,251.2,391.7,250.2z"/>
</g>
</svg>
